<svg xmlns="http://www.w3.org/2000/svg" viewBox="0 0 800.4 450.4"><title>btl</title><g id="Layer_2" data-name="Layer 2"><rect x="0.2" y="0.2" width="800" height="450" style="fill:#29292e;stroke:#231f20;stroke-miterlimit:10;stroke-width:0.39638800895504345px"/><rect x="50.2" y="45.2" width="700" height="360" style="fill:none;stroke:#a62279;stroke-miterlimit:10"/><path d="M376,239.88,387.93,228l3.07,3.05L376,246h-.07l-.15-.12L355,225.06V225l21-21,15,15-3,3-3-3-3-3-3-3-3-3c-.26.15-14.61,14.46-14.9,14.86C361.26,225.23,375.63,239.56,376,239.88Z" transform="translate(0.2 0.2)" style="fill:#a62279"/><path d="M424,204l21,21c-.12.24-20.57,20.65-21,21-.23-.14-8.48-8.37-8.75-8.74l3-3,2.85,2.85,2.9,2.74L438.91,225c-.11-.24-14.5-14.59-14.86-14.87-1.9,1.87-3.77,3.77-5.7,5.69l-3-3C415.45,212.49,423.72,204.2,424,204Z" transform="translate(0.2 0.2)" style="fill:#a62279"/><path d="M400.05,246l-8.76-8.77,3-3c1,.94,1.9,1.89,2.85,2.84l2.86,2.85c1.37-1.32,2.68-2.67,4-4s2.68-2.67,4-4l4-4,3,3.06Q407.58,238.47,400.05,246Z" transform="translate(0.2 0.2)" style="fill:#a62279"/><path d="M415,219l-3,3-12-12c-.68.61-1.28,1.26-1.91,1.88l-1.92,1.91-1.87,1.88-3-3.06L400,204Z" transform="translate(0.2 0.2)" style="fill:#a62279"/><path d="M376.4,232.24l-8-8.05.33-.37c1.12-1.13,2.23-2.27,3.36-3.39a10,10,0,0,1,1.91-1.58,3.71,3.71,0,0,1,1.44-.51,2.27,2.27,0,0,1,1.68.49,2.68,2.68,0,0,1,1.1,2.2v.79a1.4,1.4,0,0,0,.28-.06,2.66,2.66,0,0,1,3.08.92,5.16,5.16,0,0,1,.43.61,2.86,2.86,0,0,1,0,2.71,6,6,0,0,1-1.18,1.73c-1.42,1.46-2.87,2.91-4.3,4.36Zm.76-4.56h.07c.44-.43.88-.86,1.3-1.3a1.71,1.71,0,0,0,.48-.92,1.08,1.08,0,0,0-.41-.77.78.78,0,0,0-1-.15,2,2,0,0,0-.5.32c-.4.36-.79.73-1.18,1.1-.1.11-.18.23-.25.32Zm-3-2.89a13,13,0,0,0,1.39-1.48,1,1,0,0,0,.12-.23.9.9,0,0,0-.3-1.08.75.75,0,0,0-1.06,0,2.37,2.37,0,0,0-.34.29c-.33.31-.64.64-1,1l-.18.21Z" transform="translate(0.2 0.2)" style="fill:#a62279"/><path d="M405.65,228.17,403,230.82l-2.94-2.94-3-3-2.36,2.3-2.05-2.08,7.35-7.32,2.08,2.08-2.37,2.38,3,3Z" transform="translate(0.2 0.2)" style="fill:#a62279"/><path d="M425.87,226.68l3.56-3.58,1.91,1.9q-3,3.06-6.21,6.21l-8-8,2.66-2.63Z" transform="translate(0.2 0.2)" style="fill:#a62279"/></g></svg>