<svg xmlns="http://www.w3.org/2000/svg" viewBox="0 0 800.4 450.4"><title>williams-center</title><g id="Layer_2" data-name="Layer 2"><rect x="0.2" y="0.2" width="800" height="450" style="fill:#29292e;stroke:#231f20;stroke-miterlimit:10;stroke-width:0.39638800895504345px"/><rect x="50.2" y="45.2" width="700" height="360" style="fill:none;stroke:#a62279;stroke-miterlimit:10"/><path d="M412.68,243.43a.32.32,0,0,0-.09-.26l-.1-.28h-1l-.1.28-.09.26h-.59l.27-.75.26-.66a6.14,6.14,0,0,1,.23-.57l.24-.54h.55c.08.18.15.36.24.54l.25.57.24.66q.14.34.27.75Zm-.68-2a.33.33,0,0,0,0,.14l-.09.23a.43.43,0,0,1-.1.26,1.1,1.1,0,0,1-.12.31h.72l-.11-.31-.1-.28-.14-.22Z" transform="translate(0.2 0.2)" style="fill:#a62279"/><path d="M416.27,240.91v.49h-.71v2H415v-2h-.77v-.49Z" transform="translate(0.2 0.2)" style="fill:#a62279"/><path d="M421.37,241.18a.48.48,0,0,0,.09.33l.11.39a2,2,0,0,0,.12.4c0,.13.09.26.12.37a.88.88,0,0,1,.1-.4,3.58,3.58,0,0,1,.09-.45l.09-.46a2.23,2.23,0,0,1,.08-.45h.59c-.09.42-.18.85-.29,1.28s-.24.84-.37,1.23h-.51c-.09-.23-.18-.47-.26-.72l-.23-.78-.23.78c-.08.26-.16.49-.25.72h-.51c-.13-.38-.25-.79-.37-1.23s-.21-.87-.28-1.28h.61a1,1,0,0,0,.07.45l.1.46a.81.81,0,0,0,.09.45,1.07,1.07,0,0,1,.1.4,1.37,1.37,0,0,1,.14-.38c0-.13.07-.27.12-.4l.1-.38a1.59,1.59,0,0,1,.09-.33Z" transform="translate(0.2 0.2)" style="fill:#a62279"/><path d="M424.2,240.91h.57v2.52h-.57Z" transform="translate(0.2 0.2)" style="fill:#a62279"/><path d="M428.12,243v.48h-1.68v-2.52H427v2Z" transform="translate(0.2 0.2)" style="fill:#a62279"/><path d="M431.26,243v.48h-1.68v-2.52h.56v2Z" transform="translate(0.2 0.2)" style="fill:#a62279"/><path d="M432.7,240.91h.57v2.52h-.57Z" transform="translate(0.2 0.2)" style="fill:#a62279"/><path d="M436.67,243.43l-.09-.26c0-.1-.07-.19-.09-.28h-1a1.31,1.31,0,0,0-.09.28l-.09.26h-.59q.13-.41.27-.75c.09-.23.17-.43.24-.66l.25-.57c.08-.18.15-.36.24-.54h.55c.09.18.16.36.24.54s.17.37.25.57.16.43.25.66.17.48.27.75Zm-.68-2v.14l-.08.23-.11.26c0,.1-.08.2-.11.31h.72l-.11-.31-.11-.28-.18-.22-.07-.13Z" transform="translate(0.2 0.2)" style="fill:#a62279"/><path d="M439.31,240.91l.16.3.17.38a3.79,3.79,0,0,1,.18.42l.18.4c0-.12.11-.25.17-.4l.19-.42c.05-.13.12-.26.17-.38l.15-.3h.52a2.52,2.52,0,0,0,.07.57v2h-.56v-1.66c0,.1-.1.22-.15.34l-.16.37a.85.85,0,0,1-.16.35l-.12.29h-.39l-.12-.29c0-.11-.1-.23-.15-.35l-.16-.37-.14-.34a4.29,4.29,0,0,1-.06.88,3.38,3.38,0,0,0,0,.78h-.56v-2a1.46,1.46,0,0,1,.07-.57Z" transform="translate(0.2 0.2)" style="fill:#a62279"/><path d="M443.68,243H444a.19.19,0,0,0,.07-.08v-.11a.27.27,0,0,0-.11-.2,2.87,2.87,0,0,0-.4-.18,1.09,1.09,0,0,1-.25-.1.71.71,0,0,1-.22-.13.69.69,0,0,1-.16-.22.77.77,0,0,1-.06-.3.81.81,0,0,1,.06-.31.88.88,0,0,1,.19-.24,1.14,1.14,0,0,1,.29-.15,1.28,1.28,0,0,1,.39,0,1.43,1.43,0,0,1,.73.17l-.16.44-.24-.09a.81.81,0,0,0-.31,0,.48.48,0,0,0-.29,0,.22.22,0,0,0-.09.17.24.24,0,0,0,0,.12l.09.09.15.07.16.06a2.13,2.13,0,0,1,.35.14,1,1,0,0,1,.24.16.74.74,0,0,1,.14.22.86.86,0,0,1,0,.32.64.64,0,0,1-.25.54,1.21,1.21,0,0,1-.74.19H443l-.3-.12.16-.46a1,1,0,0,0,.28.11A1.3,1.3,0,0,0,443.68,243Z" transform="translate(0.2 0.2)" style="fill:#a62279"/><path d="M416,209.72v.88h-2.22v6.17h-1v-6.18h-2.22v-.88Z" transform="translate(0.2 0.2)" style="fill:#a62279"/><path d="M421.44,209.72h1v7h-1v-3.25H418v3.25h-1v-7h1v2.94h3.44Z" transform="translate(0.2 0.2)" style="fill:#a62279"/><path d="M424.17,216.76v-7h4.3v.85h-3.34v2.09h2.95v.82h-2.92v2.43h3.56v.85Z" transform="translate(0.2 0.2)" style="fill:#a62279"/><path d="M413.33,219.71a4.39,4.39,0,0,1,2.43.57,2.23,2.23,0,0,1,.5,2.93,2.46,2.46,0,0,1-1,.74,5.52,5.52,0,0,1,.44.6c.16.22.31.46.47.71s.3.5.43.76l.39.79H415.2l-.39-.7c-.13-.23-.27-.46-.41-.69l-.41-.63a6.32,6.32,0,0,0-.4-.54h-.79v2.56h-1.58v-6.92a12.4,12.4,0,0,1,2.11-.18Zm0,1.35h-.56V223h.44a2.8,2.8,0,0,0,1.28-.22.93.93,0,0,0,.21-1.29.84.84,0,0,0-.21-.21,2.51,2.51,0,0,0-1.11-.22Z" transform="translate(0.2 0.2)" style="fill:#a62279"/><path d="M418,226.81v-7h4.74v1.33h-3.15v1.38h2.81v1.34h-2.81v1.69H423v1.34Z" transform="translate(0.2 0.2)" style="fill:#a62279"/><path d="M428.23,224.45a4,4,0,0,1-.12,1,1.87,1.87,0,0,1-1.19,1.34,3.5,3.5,0,0,1-1.24.2,3.63,3.63,0,0,1-1.18-.17,3.09,3.09,0,0,1-.82-.39l.52-1.23a3.64,3.64,0,0,0,.63.3,1.66,1.66,0,0,0,.73.13,1,1,0,0,0,.83-.28,1.45,1.45,0,0,0,.25-.95v-4.59h1.59Z" transform="translate(0.2 0.2)" style="fill:#a62279"/><path d="M432.5,227a3.49,3.49,0,0,1-1.28-.23,2.47,2.47,0,0,1-.89-.57,2.53,2.53,0,0,1-.52-.88,4.21,4.21,0,0,1-.17-1.11v-4.39h1.6V224a2.16,2.16,0,0,0,.09.72,1.47,1.47,0,0,0,.27.49.87.87,0,0,0,.41.27,1.58,1.58,0,0,0,.52.09,1.32,1.32,0,0,0,.94-.36,1.64,1.64,0,0,0,.35-1.21v-4.23h1.59v4.38a3.53,3.53,0,0,1-.18,1.11,2.16,2.16,0,0,1-1.42,1.46A3.65,3.65,0,0,1,432.5,227Z" transform="translate(0.2 0.2)" style="fill:#a62279"/><path d="M439,226.81c-.28-.59-.55-1.2-.82-1.84s-.53-1.26-.78-1.88-.46-1.22-.68-1.79-.37-1.11-.53-1.52H438c.12.41.26.84.43,1.31l.5,1.4.48,1.33c.15.45.3.8.43,1.11.13-.31.28-.68.43-1.11s.33-.86.49-1.34.34-.93.49-1.4l.45-1.32h1.67c-.15.45-.33,1-.54,1.52s-.43,1.11-.67,1.79-.5,1.24-.78,1.89-.54,1.24-.82,1.83Z" transform="translate(0.2 0.2)" style="fill:#a62279"/><path d="M448.3,226.81l-.24-.75-.28-.77H445l-.26.77-.25.75h-1.64q.39-1.12.75-2.1c.25-.64.47-1.24.69-1.81s.46-1.11.68-1.62.44-1,.69-1.5h1.5c.23.49.45,1,.68,1.5s.45,1.05.67,1.62.47,1.17.7,1.81.49,1.35.76,2.1Zm-1.9-5.43a3.61,3.61,0,0,1-.16.42c-.06.18-.14.38-.22.61l-.3.76c-.11.28-.21.56-.32.86h2c-.11-.3-.22-.58-.31-.86s-.2-.54-.29-.77l-.24-.6C446.5,221.61,446.44,221.48,446.4,221.38Z" transform="translate(0.2 0.2)" style="fill:#a62279"/><path d="M414.31,237a3.61,3.61,0,0,1-1.34-.24,2.92,2.92,0,0,1-1.05-.71,3.21,3.21,0,0,1-.66-1.11,5,5,0,0,1-.25-1.57,4.44,4.44,0,0,1,.28-1.57,3.37,3.37,0,0,1,.72-1.11,3,3,0,0,1,1.11-.71,3.44,3.44,0,0,1,1.3-.24,5.16,5.16,0,0,1,.79.06,6,6,0,0,1,.61.14,2.9,2.9,0,0,1,.41.16l.23.13-.29.81a1.3,1.3,0,0,0-.26-.14l-.4-.14a2.47,2.47,0,0,0-.47-.11,2.43,2.43,0,0,0-.6-.17,2.52,2.52,0,0,0-1,.19,2.08,2.08,0,0,0-.75.56,2.55,2.55,0,0,0-.49.88,4.32,4.32,0,0,0-.17,1.18,3.77,3.77,0,0,0,.16,1.11,2.24,2.24,0,0,0,.43.89,1.84,1.84,0,0,0,.73.57,2.6,2.6,0,0,0,1,.21,4.76,4.76,0,0,0,1.19,0,5.32,5.32,0,0,0,.66-.26l.26.81a1.23,1.23,0,0,1-.26.12,2.69,2.69,0,0,1-.45.16l-.66.12A5.34,5.34,0,0,1,414.31,237Z" transform="translate(0.2 0.2)" style="fill:#a62279"/><path d="M417.57,236.88v-7h4.3v.85h-3.34v2h2.94v.83h-2.9v2.51h3.54v.85Z" transform="translate(0.2 0.2)" style="fill:#a62279"/><path d="M428.2,236.88c-.14-.26-.31-.53-.51-.85s-.4-.63-.62-1l-.7-1-.71-1-.69-.92-.63-.74v5.49h-1v-7h.79c.31.35.66.74,1,1.19s.74.91,1.11,1.39.69,1,1,1.4.59.88.8,1.24v-5.23h1v7.05Z" transform="translate(0.2 0.2)" style="fill:#a62279"/><path d="M435.46,229.83v.86h-2.23v6.19h-1v-6.19H430v-.86Z" transform="translate(0.2 0.2)" style="fill:#a62279"/><path d="M436.49,236.88v-7h4.29v.85h-3.34v2h2.95v.83h-2.92v2.51H441v.85Z" transform="translate(0.2 0.2)" style="fill:#a62279"/><path d="M445.72,233.92l.41.54c.17.22.34.46.51.73s.35.54.53.83a8.48,8.48,0,0,1,.43.85h-1.11c-.13-.26-.28-.51-.43-.78s-.33-.52-.48-.76-.32-.46-.49-.67l-.43-.55h-1.4v2.77h-1V230a4.77,4.77,0,0,1,.92-.15h.94a3.89,3.89,0,0,1,2.23.56,1.89,1.89,0,0,1,.77,1.66,2,2,0,0,1-.36,1.2A2.22,2.22,0,0,1,445.72,233.92Zm-1.5-3.33a7.53,7.53,0,0,0-1,0v2.66h.7c.3,0,.61,0,.91-.06a2.36,2.36,0,0,0,.69-.19,1.11,1.11,0,0,0,.43-.28,1.47,1.47,0,0,0,.14-.69,1.34,1.34,0,0,0-.14-.65,1.15,1.15,0,0,0-.41-.41,1.72,1.72,0,0,0-.61-.22,6.35,6.35,0,0,0-.76-.13Z" transform="translate(0.2 0.2)" style="fill:#a62279"/><polygon points="391.84 206.61 389.81 211.16 383.89 224.43 386.58 230.43 395.18 211.16 398.4 211.16 386.58 237.64 380.68 224.43 388.63 206.61 383.26 206.61 377.99 218.42 372.72 206.61 367.35 206.61 375.31 224.43 369.41 237.64 357.6 211.16 360.81 211.16 369.41 230.43 372.09 224.43 366.18 211.16 364.14 206.61 350.2 206.61 366.72 243.63 372.09 243.63 372.11 243.63 377.99 230.44 383.88 243.63 383.9 243.63 389.26 243.63 405.79 206.61 391.84 206.61" style="fill:#a62279"/></g></svg>