<svg xmlns="http://www.w3.org/2000/svg" viewBox="0 0 800.4 450.4"><title>artas</title><g id="Layer_2" data-name="Layer 2"><rect x="0.2" y="0.2" width="800" height="450" style="fill:#29292e;stroke:#231f20;stroke-miterlimit:10;stroke-width:0.39638800895504345px"/><rect x="50.2" y="45.2" width="700" height="360" style="fill:none;stroke:#a62279;stroke-miterlimit:10"/><path d="M384.4,228.82l5.76,8.43h-5.55l-5.08-7.65h-5.7v7.67h-4.7V217.51c2.53-.25,5.11-.14,7.65-.14a54.24,54.24,0,0,1,7.54.24,6.73,6.73,0,0,1,4.83,2.26,5.54,5.54,0,0,1,.44,5C388.66,227.18,386.44,227.89,384.4,228.82Zm-10.49-8v5.55h5.77c1.47,0,3.46,0,4.61-1.07a2.77,2.77,0,0,0,.4-3.26c-.79-1.39-2.66-1.22-4.05-1.25C378.39,220.84,376.16,220.84,373.91,220.84Z" transform="translate(0.2 0.2)" style="fill:#a62279"/><path d="M441.46,231.24h4.61a4.66,4.66,0,0,0,1.71,2.66,7.5,7.5,0,0,0,3.61,1c2,.16,6.41-.38,6-3.31a2,2,0,0,0-1.8-1.75c-2-.37-4-.55-5.93-.94a16.34,16.34,0,0,1-5.17-1.54,4.85,4.85,0,0,1-2.13-5.78,5.63,5.63,0,0,1,2.07-2.87,12.37,12.37,0,0,1,6-1.86,15,15,0,0,1,6.8.92,6,6,0,0,1,4.07,5.41h-4.48a5.93,5.93,0,0,0-5.55-3.47A5.54,5.54,0,0,0,448,220.9a2.18,2.18,0,0,0-.35,3c.86,1,2.68,1,3.89,1.18,1.61.22,3.22.46,4.83.74,2.39.43,4.82,1.25,5.79,3.68a5.33,5.33,0,0,1-1.93,6.24,12.42,12.42,0,0,1-5.68,2,19.65,19.65,0,0,1-6.31-.16,10,10,0,0,1-5-2.26A5.47,5.47,0,0,1,441.46,231.24Z" transform="translate(0.2 0.2)" style="fill:#a62279"/><path d="M416.94,237.34h-5.11l10.78-19.9h6.1l10.77,19.81h-5.55L425.31,221Z" transform="translate(0.2 0.2)" style="fill:#a62279"/><path d="M400.43,220.74h-8v-3.27h20.74v3.19h-8v16.66h-4.72Z" transform="translate(0.2 0.2)" style="fill:#a62279"/><path d="M351.56,221l-3.62,6.94-2.9-3.55,3.84-6.94H355l10.81,19.81H360.1Z" transform="translate(0.2 0.2)" style="fill:#a62279"/><path d="M350.91,232.35c-5.55-.2-14.52-13.88-13.3-20.28,1.92,3.57,3.61,7.23,5.74,10.66q1.59,2.58,3.44,5A28.67,28.67,0,0,0,350.91,232.35Z" transform="translate(0.2 0.2)" style="fill:#a62279"/><path d="M346.26,231.29l-3.05,6h-5.08l4.92-9Z" transform="translate(0.2 0.2)" style="fill:#a62279"/><path d="M428.44,232.94a2.85,2.85,0,0,1-2.87,2.78,2.78,2.78,0,0,1,.15-5.55A2.88,2.88,0,0,1,428.44,232.94Z" transform="translate(0.2 0.2)" style="fill:#a62279"/></g></svg>