<svg xmlns="http://www.w3.org/2000/svg" viewBox="0 0 800.4 450.4"><title>fxck-cancer</title><g id="Layer_2" data-name="Layer 2"><rect x="0.2" y="0.2" width="800" height="450" style="fill:#29292e;stroke:#231f20;stroke-miterlimit:10;stroke-width:0.39638800895504345px"/><rect x="50.2" y="45.2" width="700" height="360" style="fill:none;stroke:#a62279;stroke-miterlimit:10"/><path d="M361.76,228.79c1,2.29,1.91,4.59,2.91,7l4.92-2.82-2.94-6.63c-2.83,1-5.84,1.84-8.57,3.09-2.33,1-2.45,3.44-3.07,5.65v6.77c.58,1.54,1.26,3,1.93,4.54l4.64,3.79,7.86-5.79-3.67.63a.2.2,0,0,0-.11,0l-.22.07.22-.07a.2.2,0,0,1,.11,0,6.24,6.24,0,0,1-4.43-5.32,49.92,49.92,0,0,1,0-5.19v-5.68Z" transform="translate(0.2 0.2)" style="fill:#a62279"/><path d="M442,231.86l-3.33,3.5,2.76,4.35,3.55-3v-.8Z" transform="translate(0.2 0.2)" style="fill:#a62279"/><path d="M374.38,231.28l2.76-20.5h4.17l-.09-2-7.31-1.2c-.94-.92-2.47-1.46-2-3.75,1,0,1.94,0,2.9.14a17.94,17.94,0,0,1,2.82.83,10.59,10.59,0,0,0,5.63.41c1.41-.29,2.82-.81,3.35-2.26a2.83,2.83,0,0,0-.87-3.31l-.36,2.26a49.57,49.57,0,0,0-7.86-2.12c-1.74-.21-3.78-.05-5.12,1.23s-1.48,3.12-1.4,4.82c.09,2.13-.23,3.9-2.28,5l2.2.14q1.29,10.2,2.6,20.39Z" transform="translate(0.2 0.2)" style="fill:#a62279"/><path d="M440.25,246.21a2.7,2.7,0,0,1-2.32-2.24,34.73,34.73,0,0,1-.05-5.86,8,8,0,0,0-.41-3.88,5.59,5.59,0,0,0-2.8-2.38L430,236l2.31-.31c.86,3.32.47,6.5.32,9.65l-1.48.76L436.9,250c2-1.68,4-3.39,6-5.11l-.18-.18Z" transform="translate(0.2 0.2)" style="fill:#a62279"/><path d="M402.06,244.6v-8.32l1.32-.91-4.1-3.4-4,3.25h0l-1.16.17a4.79,4.79,0,0,0-3.11-3.54l-3.13,2.75a21.23,21.23,0,0,1,1.2,2.56,12.92,12.92,0,0,1,.23,3.28c0,1.17,0,2.34-.07,3.49a8.25,8.25,0,0,1-1,3.21l3.25,2.83,3.38-2.6c-1-3.79-.45-7.43-.42-11l.79-.83,1.6.18c.16,3,.11,6,.12,9,0,2.28.3,4.42,2.64,5.42l4.72-3.86C402.53,246.5,402.06,245.76,402.06,244.6Zm-6.75-9.3Z" transform="translate(0.2 0.2)" style="fill:#a62279"/><path d="M379.7,232.39l-3.55,2.3,2.86,2.55v7a5.22,5.22,0,0,1-.53,2,35.39,35.39,0,0,1,3.44,4.1l3.3-3c-2.41-3.37-1-7-1.24-10.45l1.45-.79Z" transform="translate(0.2 0.2)" style="fill:#a62279"/><path d="M384.18,212.38c1.26-.24,1.94.14,1.51,1.57l3.55.43.32,1.59-1.74.87c-1.14-.5-.87-2.5-2.43-1.29l-.56-.71v1.61l.4,1.51-5.06-1.66-.92,1.21-2.07.19,1.08,2.64.71-.24-.24-1.29a3.58,3.58,0,0,1,3.65-.29,10.21,10.21,0,0,0,1.62.81,4.18,4.18,0,0,0,1.61-.25,14.84,14.84,0,0,1,1.54,1.53,3.46,3.46,0,0,0,1.82,1,3.82,3.82,0,0,0,3.84-1.29l6.29-2.66.43,1.66c.48,2.74,3.14,3.12,4.78,4.65l5.32-3.75c-2-.32-4.41-.74-5.21-2.85a10.19,10.19,0,0,1-.43-3.3v-6.54c-1.5.3-3.42.63-4.2,2.14a6.71,6.71,0,0,0-.51,2.41c-.11,1.44-.24,2.86-.38,4.3a14.21,14.21,0,0,1-1.69.87,7.59,7.59,0,0,1-2,.27l.8-4.35-.77-.65-.63,1.09-.76,3.11-1.84-.37c-1-.21.62-1.66-.74-1.59.39-.31.79-.61,1.2-.89a4.09,4.09,0,0,1,1.54-.33l.41-3.16h.86l.35.87-.35,1.27.78.65V210.4l-1.14-1.68a3.43,3.43,0,0,0-2.52-2.3,7.77,7.77,0,0,0-4.25-.09C385.31,207.07,383.33,209.44,384.18,212.38Zm5.63,5.59-.23-.72,1.43-.51.25.67Z" transform="translate(0.2 0.2)" style="fill:#a62279"/><path d="M376.1,234.71Z" transform="translate(0.2 0.2)" style="fill:#a62279"/><path d="M371.26,240c.21,2.09-.29,4.31.21,6.35a6.18,6.18,0,0,0,3.17,3.81l3.52-3.64-1.84.27c-.07-4.14-.15-8.1-.22-12.06a8.32,8.32,0,0,0-3.85,1.79A4.36,4.36,0,0,0,371.26,240Z" transform="translate(0.2 0.2)" style="fill:#a62279"/><path d="M423.62,241.76c2-1.41,4.17-2.71,6.35-4.1l-3.73-5.95-4.4,2.14c-1.4.46-2.93,1.06-3.57,2.5-.78,1.76-.45,4-.42,5.9a8,8,0,0,0,5.89,7.83l5.3-4c-2.9.81-4.68-.66-6.23-2.64C423.07,242.85,423.18,242.07,423.62,241.76Zm-1.24,0v-7.28l3.47,5.29Z" transform="translate(0.2 0.2)" style="fill:#a62279"/><path d="M410.83,234.64c.73,1.47,1.37,3,2.1,4.59L417,237l-2.45-5-5,1.83c-1.21.25-2.75.53-3.51,1.62s-.77,3.16-.79,4.59c0,2-.32,4.43.57,6.28s3.06,2.79,4.7,3.85l5.39-3.85c-2-.12-4.39-.56-5.3-2.64a8.51,8.51,0,0,1-.53-3.43c0-2-.07-4-.1-6C410.27,234.4,410.72,234.43,410.83,234.64Z" transform="translate(0.2 0.2)" style="fill:#a62279"/><path d="M407,213l3.9-2-2.5-5.06L404,207.55h0v0h0Z" transform="translate(0.2 0.2)" style="fill:#a62279"/><path d="M391.6,222.57l9.37,4,.61-1.6-9.66-3.39Z" transform="translate(0.2 0.2)" style="fill:#a62279"/><path d="M378.5,223.81a1.93,1.93,0,0,0,.5,2.67l.18.11L387.4,223l-.21-.55C384.17,222,381.8,225.67,378.5,223.81Z" transform="translate(0.2 0.2)" style="fill:#a62279"/><path d="M413.18,205.29l.53-1.73.92.76-.62-1.13c-1-.62-1.27-1.15-2.36-.33s-.5,1.78-.24,2.9Z" transform="translate(0.2 0.2)" style="fill:#a62279"/><path d="M414.71,204.41h0c.1,2.83.22,5.67.31,8.5,0,1.39.1,2.78.13,4.16a8.09,8.09,0,0,1,0,1.84,7.26,7.26,0,0,1-.76,1.59l-2.35-.57,4.87,4.51,4.39-3.82-1.18-.65v-4.1c2.27,3,3.84,6.14,7.21,7.5l6.56-4.9-2.81.68c-4-.69-5.94-4-8.64-6.55a24.42,24.42,0,0,1,7.43-5.84l1-.52-.13-.34-1.79.44L421.39,212l-1.53.65c.17-3.16.32-6.06.47-9h0l1-1.85-.32-.1-1.45,1.48a5.43,5.43,0,0,0-5.18-2.75l-3-.5v.39l2.61.49c1.51,1.17,1.72,2.11.75,3.61l-.09-.07.06.11Z" transform="translate(0.2 0.2)" style="fill:#a62279"/></g></svg>