<svg xmlns="http://www.w3.org/2000/svg" viewBox="0 0 800.4 450.4"><title>greg-mueller</title><g id="Layer_2" data-name="Layer 2"><rect x="0.2" y="0.2" width="800" height="450" style="fill:#29292e;stroke:#231f20;stroke-miterlimit:10;stroke-width:0.39638800895504345px"/><rect x="50.2" y="45.2" width="700" height="360" style="fill:none;stroke:#a62279;stroke-miterlimit:10"/><path d="M474.65,221.4l-.43-.64-1.35-.43h-4l-.57-1.18c-.26-.85-.71-1.39-1.67-1-1.53,1.42-1.53,1.77,0,3.19a.55.55,0,0,0,.49.15l.6.56h0c-.17.57-.32,1.12-.48,1.67l-.49,1.15a.7.7,0,0,0-.13.52h0l-.55,1.17-.39.56-.23.56-1.07,1.66h0l-.46.59-.69,1.06-1.07,1.2-.53.62-.62.54h0l-.58.48L458,234.94a.51.51,0,0,0-.45,0,1,1,0,0,0-.49,0l-.67-.48h0l-.46-.72v-1l1.67-2.35.55-.49h0l.61-.55.55-.55.55-.58,1.19-2.14v-.86a.48.48,0,0,0-.1-.42c-.57-.85-1.15-.6-1.67,0l-.65.52-1,1.11-.52.65h0l-.45.59a.57.57,0,0,0-.15.47l-.45.66a.71.71,0,0,0-.12.49l-.47,1.2c-.33,1.5-1.28,3,0,4.48.57.87,1.25,1.39,2.31.75a.61.61,0,0,0,.5-.11l.55-.14,1.66-1,.62-.42.48-.32.57-.5.57-.53,1.07-1.14h0l.46-.51a.61.61,0,0,0,.19-.44l.55-.71,1.05-1.67a1.26,1.26,0,0,0,.2-.48l.35-.64a1.12,1.12,0,0,0,.21-.5l.34-.63a.67.67,0,0,0,.15-.49l.5-1.18,1-2.3a.5.5,0,0,0,.2-.45l4.42-.1.11,2.27-.11.53h0l-.52,1.15a.75.75,0,0,0-.18.45l-.6,1.18-.87,1.79a.89.89,0,0,0-.19.52l-1,2.21a.53.53,0,0,0-.1.42l-.4.72a.78.78,0,0,0-.13.52l-.48,1.2a.75.75,0,0,0,0,.55.36.36,0,0,0,0,.4l-.45,1.3a.8.8,0,0,0-.1.5,2.11,2.11,0,0,0,0,2.9h0l.53.58h0l.28.37.32-.33.4-.32-.42-.47a.94.94,0,0,0-.13-.46v-2.84a.62.62,0,0,0,0-.53l.53-1.67h0l.5-1.15a1.06,1.06,0,0,0,0-.5l.39-.65L472,229.3l.8-2.22.35-.61a.75.75,0,0,0,.18-.54l.35-.58.14-.57C474.7,223.77,475.47,222.73,474.65,221.4Z" transform="translate(0.2 0.2)" style="fill:#a62279"/><path d="M398.15,206.59a.55.55,0,0,0-.12-.44l-.5-.6-.58-.41h-1.13l-1.26.91-.55.52-.51.55-.55.62-.55.62-.47.6-1.15,1.66-.7,1.09-.45.63h0l-.44.55a1,1,0,0,0-.18.47l-.5.67-.6,1.11h0l-.43.57-.67,1.18-.4.52-.2.54-.43.6a.66.66,0,0,0-.17.46h0l-.48.67c-.19.38-.39.75-.57,1.13h0l-.4.59a.69.69,0,0,0-.19.5l-.41.6a.87.87,0,0,0-.17.52l-.43.65a.78.78,0,0,0-.15.45l-.44.65a.88.88,0,0,1-.13.55l-.4.61a.72.72,0,0,0-.2.52l-.38.6a.84.84,0,0,0-.22.52l-.37.62a.8.8,0,0,0-.21.51l-.52,1-1.12,1.9h0l-.58,1.12-.59.57-.46.75a.43.43,0,0,1-.12.37V235a1.48,1.48,0,0,1-.42,0h-.88l.23-1.1.49-.13a1.69,1.69,0,0,0-.12-.55l.27-.55.4-.64v-1.06a1,1,0,0,0,0-.55q.34-1.12.66-2.25l.42-1.16.15-.38.57-1.67.46-1.18.59-2.84.57-2.26v-.55l.48-1.67a.74.74,0,0,0,.1-.52l.45-1.67.1-1.67v-3.41l0-.77c-.35-.75-.72-1.44-1.67-.55l-1.2.92-.47.33-1,1-.78,1-.52.59-.48.61L374.4,214l-.78,1.47-.92,1.35h0a.53.53,0,0,0-.2.43l-1,1.82-.51,1.15a.75.75,0,0,0-.14.52l-.38.58-.84,2.24-.33.63a.58.58,0,0,0-.15.47l-.37.63-.23,1-.4.7a1,1,0,0,0-.1.54l-.5,1.16a.83.83,0,0,0,0,.54l-.48,1.15a.56.56,0,0,0-.1.5c-.35,1-.7,1.95-1,2.93h-.13l-.49.6v.6h-.08l.1.62h-.12l-.46,1.22a1.57,1.57,0,0,0,0,.53,2.55,2.55,0,0,0-.24.5l-.35.69a1.1,1.1,0,0,0,0,.51,1.69,1.69,0,0,0-.23.49h-.43v-1.17a1.14,1.14,0,0,0,0-.52l.18-.53.37-.69v-1.63h.46l-.1-.65v-1.17a2.52,2.52,0,0,0,.17-.53l.35-.69V231l.13-1,.42-1.25.15-1,.45-1.27a1.08,1.08,0,0,0,.09-.5l.45-1.2.15-1,.36-.7v-.57a.64.64,0,0,0,.1-.5l.59-1.67.36-.67.09-.56a.67.67,0,0,0,.11-.45l.4-.69.17-1,.53-1.27.5-1.13.62-1.67.57-1.15h0l.45-.57a.49.49,0,0,0,.18-.4l.55-.7h0l.52-.62h0l.45-.51.32-.52,1.31-1.19.64-.95.6-.71.43-.67.54-.62,1.18-1.67.42-.6.28-.48.43-.58.76-1.1.41-.59.5-.63,1.12-1.67a1.77,1.77,0,0,0,.23-.48l.39-.62.68-1.12.4-.63.6-1.09.6-1.1.4-.66a1.14,1.14,0,0,0,.14-.5c.6-.59.8-1.14,0-1.67h0l-.2-.39-.54.36a.73.73,0,0,0-.48.11l-.6.47h0l-.62.53-.53.62-.54.57-.55.6-1,1.13-.32.48-.94,1.19-.7.62-.48.46-.47.75-.83,1.67-.42.45-.45.77-.55,1.67a.88.88,0,0,0-.17.41l-1,1.67-.53,1.15a1.33,1.33,0,0,0-.19.5l-.35.64a1.12,1.12,0,0,0-.18.5l-.48,1.06-.4.7a.63.63,0,0,0-.15.49l-.39.63-.15.59-.5,1.13a.68.68,0,0,0-.13.43h0a7.42,7.42,0,0,1-.44.7L368.7,214l-1.1,1.2-.57.59h0L366,216.91l-.6.58-.6.59-.58.55L363,219.71l-.6.55-.59.52-1.15,1-.47.32-1.16,1h0l-.6.47-.72.6-1,.6h0l-.74.53a.32.32,0,0,0-.37.12l-.61.38a1,1,0,0,0-.5.2l-1.29.6H352.1l-.93-1.32c-.34,1.39-.52,2.27.95,2.34h.57l2.31-1h0l.65-.35,1.11-.72a.59.59,0,0,0,.48-.23l1.22-.93h0l.56-.45.49-.3,1.16-1h0l1.19-1,.7-.63a.32.32,0,0,0,.35-.2l.57-.54,1.11-1,.59-.55.58-.56.57-.59,1.07-.6h0v-.53l.55-.59.71.6a.66.66,0,0,0-.13.47,1.55,1.55,0,0,1-.47.12l.1.58H368v1.05l-.37.69-.68,2.13-.48,1.12a.72.72,0,0,0-.12.53l-.45,1.17v.57a.76.76,0,0,0-.12.46l-.5,1.32a.85.85,0,0,0-.08.52l-.44,1.17-.15,1.1h0l-.46,1.18a.85.85,0,0,0,0,.5l-.45,1.22a.66.66,0,0,0,0,.55.68.68,0,0,0-.1.5l-.4,1.2v1.13h0l-.44,1.19-.7,3.87-.48,1.8a1.1,1.1,0,0,0,0,.57.43.43,0,0,0-.08.41l-.4,1.27c0,1.47-1.29,2.95-.1,4.59,2.1-1.24,2.06-3.34,2.75-5.16h0v-.55a.5.5,0,0,0,.1-.41c.15-.44.31-.87.46-1.29s.32-.77.47-1.15l.1-.55a.48.48,0,0,0,.1-.43l.45-1.27a.48.48,0,0,0,.1-.43l.47-1.27a.52.52,0,0,0,.1-.45l.47-1.25a.55.55,0,0,0,.08-.45l.82-3.11.46-1.13.12-.57a.39.39,0,0,0,.08-.4l.55-1.3.47-1.13a.73.73,0,0,0,.1-.45l.38-.69.19-1,.53-1.25,1.07-2.28a1.13,1.13,0,0,0,.2-.45l.52-1.07,1-1.88h0l.4-.57.58-1.15.83-1.52.52-.7.44-.57a.7.7,0,0,0,.18-.46h0l.52-.67.41-.6-.4-.5.39.5.28-.49.47-.53,1.13-1.17,1.08-.71.57.1.1,3.33-.15,1.67-.53,1.78v.59l-.55,2.27v.55l-.47,1.66v.57l-.63,2.15-.45,1.27a.75.75,0,0,0,0,.55L377.3,227l-.53,1.67h0v.56l-.47,1.14h0V231h0l-.45,1.17v.59h0l-.45,1.15-.18,1-.37.73c-.58,2-1.77,3.91-1,6.31,2-.75,2.52-2.47,3.2-4l.4-.6a.76.76,0,0,0,.17-.52l.43-.62a1,1,0,0,0,.17-.5l.41-.65a.9.9,0,0,0,.17-.53l.4-.62a.74.74,0,0,0,.17-.48l.43-.63a.66.66,0,0,0,.15-.42l1-1.85,2.3-4.47.43-.64a1,1,0,0,0,.17-.46l.43-.67a.79.79,0,0,0,.13-.45l.44-.67a.74.74,0,0,0,.15-.45h0l.45-.68a.84.84,0,0,0,.13-.44l1-1.83h0l.41-.55a.84.84,0,0,0,.19-.5l.45-.63,1.25-2.22L390,214h0l.45-.6a.9.9,0,0,0,.17-.47l.88-1.22a.52.52,0,0,0,.23-.48l.54-.65.45-.57.71-1.12.49-.6.5-.58a.28.28,0,0,0,.18-.32l.32-.67a.29.29,0,0,0,.33-.18l.6-.45,1.17.57.5,1.67h0v4.9l-.43,2.38-.14,1.67-.43,2.35v.57l-.12,1.05-.41,1.79v1.13a.45.45,0,0,0,0,.45l-.72,1.95v.57a.51.51,0,0,0,0,.45l-.43,1.82-.12,1.06-.44,1.77v1.14h0l-.46,1.66v1.14h0l-.49,1.67-.1,1-.4,1.24v1.7h0v3l.35.39.39-.42L394,243l.57-2.24v-1.67l.13-1.06.47-1.79.1-1,.4-1.23v-.57l.15-1,.38-1.26.19-1.56.38-1.25v-1.16a.47.47,0,0,0,0-.43l.47-1.83v-.57a.51.51,0,0,0,0-.45l.41-1.8.1-1.67h0l.44-2.3.11-1.67c.17-1.15.32-2.3.49-3.45V207.8Zm-22.81-2.84a.94.94,0,0,1,.13-.43l.45-.69a1.19,1.19,0,0,0,0-.46,1.11,1.11,0,0,0,.17-.47l1-1.78.57-1.14h0l1.05-1.75.63-1.1.75-1.08,1-1.17,1-1.15a.41.41,0,0,0,.19-.4l.63-.69.57-.56h.45V191l.36.36h.15l-.45,1.14-.21.51-.42.61a1,1,0,0,0-.23.5l-.4.63-.42.58-.25.52-.48.58-1.15,1.67-.41.6a.81.81,0,0,0-.26.5l-.45.6-.45.57-.52,1.18-.53.62-1.15,1.67-.42.63-.18-.08a1.69,1.69,0,0,1,0,.55h-.6a1.46,1.46,0,0,0,.11-.55,1.48,1.48,0,0,0-.42,0,1,1,0,0,0,0,.55h-.5v-.58a2.11,2.11,0,0,0,.45-.09,4.69,4.69,0,0,0,0-.53l.31-.05Z" transform="translate(0.2 0.2)" style="fill:#a62279"/><polygon points="397.73 205.7 397.73 205.72 397.75 205.72 397.73 205.7" style="fill:#a62279"/><polygon points="406.74 229.53 406.74 229.53 406.75 229.52 406.74 229.53" style="fill:#a62279"/><path d="M455,199.92l-.1,1.08.57-1.08.46-1.29L457,195.3h-1l-.48,1.16-.12.54-.65,1.67-.5,1.15h0l-.4.61a.85.85,0,0,0-.13.54l-.4.6-.25,1-1,1.89a1,1,0,0,0-.17.52L451,206.6l-.8,2.14h0l-.42.72a.61.61,0,0,0-.12.45l-.43.66a1,1,0,0,0-.13.5l-.4.65a.84.84,0,0,0-.15.5l-.39.62-.13.57h0l-.39.57-.26,1-.44.75a1.26,1.26,0,0,0-.13.54l-.37.61a.8.8,0,0,0-.16.52l-.39.62a.75.75,0,0,0-.18.52l-.37.6a.59.59,0,0,0-.15.51h-1.08v-1.16h0l.5-1.67v-.55a.55.55,0,0,0,0-.47l.45-1.23a1.17,1.17,0,0,0,.12-.52l.46-1.2a1.41,1.41,0,0,0,0-.29,1.13,1.13,0,0,0,0-.26h0l.47-1.19a1.1,1.1,0,0,0,0-.51l.48-1.19a1.06,1.06,0,0,0,0-.56h0l.49-1.19a.85.85,0,0,0,0-.5l.5-1.2a.7.7,0,0,0,.1-.45l.4-.68.75-2.14.4-.7a.81.81,0,0,0,.13-.48l.4-.67a.79.79,0,0,0,.14-.52l.41-.58L451,198a.94.94,0,0,0,.13-.4l1-1.87h0l.6-1.11.6-1.11.44-.61a1.12,1.12,0,0,0,.16-.22.77.77,0,0,0,.1-.25l.44-.55,1.51-1,.19,2.1a.7.7,0,0,0,0,.53l-.54,1.67h1l.11-.56.52-1.67v-3.27l-1.67.18-.51.44h0l-.55.53h0l-.79.57-.41.46h0l-.54.6-.47.82a.37.37,0,0,1-.13.37l-.47.68v.45a.61.61,0,0,0-.2.44l-1,1.83a.59.59,0,0,0-.15.4l-1,1.87a.57.57,0,0,0-.11.42l-.44.71a.81.81,0,0,0-.11.45l-.42.69a.86.86,0,0,0-.12.5l-.38.65h-.19l-.53,1.13a2.72,2.72,0,0,0,0,.57l.22.5-.49,1.15a.63.63,0,0,0,0,.43l-.4.7a1.26,1.26,0,0,0-.13.54l-.5,1.18a1.28,1.28,0,0,0,0,.55h0l-.48,1.17a1.06,1.06,0,0,0,0,.5l-.47,1.22a.86.86,0,0,0,0,.55h0l-.45,1.17-.15,1-.43,1.25a.86.86,0,0,0-.1.52h0l-.5,1.75a.92.92,0,0,0,0,.57.6.6,0,0,0-.1.43h0l-.42,1.27-.55,2.8-.15,1.14-.45,1.66-.1,1v0l-.49,1.85-1,4V238a.67.67,0,0,0,.08.5v1.13l.39.7,1.76,1.52h1.12l1.8-1,1.1-1.05.55-.62,1-1.23.27-.49.42-.62.43-.6.23-.5.49-.6,1.08-1.66a1.21,1.21,0,0,0,.18-.5l.45-.6.4-.59.25-.52.4-.61a1,1,0,0,0,.17-.54l.4-.71-.33-.22-.67.95a1.28,1.28,0,0,0-.2.5l-.43.6-.65,1.12-.5.58-1.1,1.67a1.78,1.78,0,0,0-.19.5l-.43.58-.72,1.1-.45.57-1,1.24h0l-.5.55h0l-.5.51h0l-.52.5h0l-2.3.59-.8-.55-.5-1.25a.51.51,0,0,0,0-.45v-5.16l.5-4.48.66-2.19.45-.67a.56.56,0,0,0,.15-.41l.44-.72a.42.42,0,0,0,.13-.4l.45-.73a.47.47,0,0,0,.15-.4l1.55-3a.55.55,0,0,0,.14-.4l.63-1.15,1.55-3,.39-.58.18-.57.53-1.15a.56.56,0,0,0,.12-.4l.43-.73a.83.83,0,0,0,0-.54h0l.44-.63a.89.89,0,0,0,.11-.48l.42-.69a.69.69,0,0,0,.13-.48l.39-.65h.2l.51-1.15v-.57a.91.91,0,0,0,.2-.52l1.57-3.35.65-1.58.42-.7h.17Z" transform="translate(0.2 0.2)" style="fill:#a62279"/><path d="M350.47,220.26l1.17-.51c.16-1.45-.77-.29-1.14-.49l-.72.37-1,.2-1.16.43h-.57l-1.67-.11-.18-1.05c-.24-.95-.64-.74-1.1-.15l-.44.7a.68.68,0,0,0-.11.48l-.44.68h0l-.66.45-1,.34-1.25.41h0a.55.55,0,0,0-.47,0,.55.55,0,0,0-.53,0l-1.25.37a.61.61,0,0,0-.47.1h-.55l-1.67.5h0l-1.53,1,1.53-.1,1.12-.37L338,223h.5l2.28-.55h.55l.59.11a.7.7,0,0,1,.53,0v.59h-.15l.09.55-.54,1.2-2.35,5-.48.75h0l-.4.57a.89.89,0,0,0-.19.52l-.43.62a.66.66,0,0,0-.17.45l-.48.7h0l-.42.53a.79.79,0,0,0-.2.48l-.5.67-1.17,1.67-.53.62h0l-.5.56h0l-.47.49-1.26,1.26-.51.47h0l-.61.48h0l-.74.5a.49.49,0,0,0-.38.14l-1.2.5h-1l-.69-.44h0l-.52-.55h0l-.48-1.18h0v-4.12h0V235a.79.79,0,0,0,0-.48l.37-1.78v-.57c.2-.72.41-1.44.62-2.15l.38-.67.58-1.67h-.95l-.38.57-.25.93-.35.74-.62,2.26a.66.66,0,0,0-.1.51l-.45,1.76v1.14a.53.53,0,0,0,0,.46v3l.1,1,.5,1.14h0l.52.63h0l.58.55h-.18l1.17.5,2.85-.65.56-.43h0l1.14-.7.48-.49h0l.55-.51h0l.55-.55h0l.55-.55h0l.54-.55h0l.46-.5,1.25-1.67.49-.59a.59.59,0,0,0,.15-.4l.5-.73h0l.43-.57a.78.78,0,0,0,.17-.48l.47-.65a.53.53,0,0,0,.11-.42l.49-.72.6-1.13h0l.65,1.67v1.15a.4.4,0,0,0,0,.42l-.45,2.41v1.14a.57.57,0,0,0,0,.48l-.45,2.9V242a.47.47,0,0,0,0,.46l-.45,2.9v1.72a.49.49,0,0,0,0,.47l-.45,2.93v1.14l-.09,1-.41,2.93-.15,3.34v2.37h.56l.5-3.34.1-1.67.44-2.32v-1.71a.6.6,0,0,0,0-.49l.43-2.9v-2.27a.51.51,0,0,0,0-.45l.43-2.37V243a.54.54,0,0,0,0-.55.52.52,0,0,0,0-.51c.17-1,.34-1.95.49-2.91v-1.12a.44.44,0,0,0,0-.47c.15-.78.28-1.57.43-2.35v-1.15a.44.44,0,0,0,0-.47l.8-1.82.1-1.1.5-2.3.67-3.85.43-1.25a.7.7,0,0,0,.12-.48l.52-.67h0l1.2-.54,1.05-.1,1.23-.45,1.05-.16.69-.39A.78.78,0,0,0,350.47,220.26Z" transform="translate(0.2 0.2)" style="fill:#a62279"/><path d="M349.92,234.42l-.47.79,1.08.3.49-.5a.45.45,0,0,0,0-.52Z" transform="translate(0.2 0.2)" style="fill:#a62279"/><path d="M440.63,197.63l.58-.58.5-1.14v-.56a.68.68,0,0,0,.12-.55l.45-1.15h0v-.57h-1v.55c-.43,1.32-.86,2.62-1.28,3.93l-.33.6-.89,2.21h0l-.43,1v0l-.42.71a.61.61,0,0,0-.13.45l-.42.67-.72,1.67-1.66,3.9v0l-.4.65a.82.82,0,0,0-.15.5l-.4.62-.12.58h0l-.38.59-.17.58-.54,1.12-.5,1.13a.62.62,0,0,0-.16.45l-.52.72a1,1,0,0,0-.13.5l-.4.63-.14.57h0l-.41.59a.87.87,0,0,0-.14.55l-.4.56-.28.55h-.48l-.1.59h.16a1.46,1.46,0,0,1-.15.53h-.5l.12-.57v-.58h-.22v-.63h.15l.44-1.2a1.23,1.23,0,0,0,0-.54h0v-1.12l.5-1.66.45-1.14.21-1.13.44-1.14.11-.56.45-1.15a.68.68,0,0,0,.12-.55l.35-.57.27-1,.38-.72V206h0l.52-1.13a1,1,0,0,0,0-.55h0l.38-.63.14-.57L434,202a.82.82,0,0,0,.12-.43l.42-.68.11-.55,2-4,.8-1.67,1.08-1.75h0l.47-.57.72-1,1.08-.45.1,2h1c.26-1.34,1.17-2.87-1.12-3.34l-.77.45a.41.41,0,0,0-.36.19l-.49.5h0l-.48.5-.72,1.06-.7.65-.42.52h0l-.48.74a1.55,1.55,0,0,0,0,.43h-.18l-.47.73-.1,1-.4.62a.74.74,0,0,0-.2.51l-.62.65-.38.61a.76.76,0,0,1-.15.48l-.1.72a1.29,1.29,0,0,0,0,.48.78.78,0,0,0-.13.52l-.37.66a5.27,5.27,0,0,1-.14.57.68.68,0,0,0,0,.4l-.41.74a1,1,0,0,0-.14.46l-.38.7a.74.74,0,0,0-.12.52l-.51,1.17a1,1,0,0,0,0,.53h0l-.39.62v.58a.74.74,0,0,0-.13.52l-1,2.87-.43,1.13-.12.57a.71.71,0,0,0-.11.55l-.54.58-.53,1.67a.7.7,0,0,1,0,.53l-.45,1.24v1.05a2.67,2.67,0,0,1-.14,1l-.41,1.22a.66.66,0,0,0,0,.55l-.12,1-.48,1.81-.12,1-.42,1.32h0v.55l-.51,2.27-.14,1-.53,1.79h0l-.57.57h0l-.56.5-.59.53a.82.82,0,0,0-.52.18l-.58.44-.53.23-.6.4h0a1.63,1.63,0,0,0-.54,0l-1.21.48-1.19-.5-.38-.65h0v-1l.43-1.23a.85.85,0,0,0,.12-.54l.57-1.16h0l1.16-.55.65-.44,1-.75.57-.55h0l.52-.6h0l.41-.5.17-.57c.74-.75.94-1.51,0-2.26h0c-.57-.92-1.17-.74-1.8,0l-.53.48-.59.65a7,7,0,0,1-.43.63h0l-.43.55-.77,1.57-.45.72h0l-1.67.62a1.06,1.06,0,0,0-.22.48l-.45.6-.5.62-.68.88-.57.59-.57.56v0l-.7.69h0a.25.25,0,0,0-.33.18h0l-1,.45-1.67,1.1a1,1,0,0,0-.48.13l-1.19-.1-.48-.63a1.08,1.08,0,0,0-.15-.53V231a.82.82,0,0,0,.08-.51v-1.72h0l-.28-.37a3.68,3.68,0,0,0-.32.37h0l-.58.57-.49.6h0l-.45.51a1,1,0,0,0-.23.44l-1.67,1.83-.52.6-1.15.5a2.13,2.13,0,0,0-.1-.55v-.56h0l.47-1.19h0a1,1,0,0,0,.08-.52l.52-1.15a1,1,0,0,0,.1-.45l.42-.68a1.24,1.24,0,0,0,.15-.47h0l.46-.68h0l.29-.84-1.24.34a.59.59,0,0,0-.2.5h0l-.43.63a.9.9,0,0,0-.13.45l-.42.69a1.13,1.13,0,0,0-.12.51l-.48,1.2a1.19,1.19,0,0,0-.1.49l-.43,1.23.46,2.3,2.34-1.16.56-.54h0c.54-.6,1.09-1.18,1.67-1.78h0a3.35,3.35,0,0,1,.55.11,1,1,0,0,0,0,.49v2.23l1.09,1.67,1.67.48,1.13-.48h0L412,235l.6-.55.56-.53.55-.55.56-.6,1-1.19.26-.5.47-.6h.5V231a.75.75,0,0,0,0,.55.64.64,0,0,0,0,.47,2.94,2.94,0,0,0,0,3.5l.57.53a.7.7,0,0,0,.45.1h1.37l1-.2.63-.41h0l1.12-.57.6-.45.53-.3.57-.43.6-.4.49.91v3a.62.62,0,0,0,0,.5V239l.43,1.2a.69.69,0,0,0,.15.48l.47.54,2.8.45h0l.63-.39,3.34-3.43a1.47,1.47,0,0,0,.25-.48l.4-.61.7-1.13.4-.6.65-1.12.43-.6a1.09,1.09,0,0,0,.24-.48h-.62l-.27.53-.43.6-.4.59-.27.51-.45.6-.43.59-.29.5-.46.58-2.82,3-.55.45h-1.67l-.53-.62a.91.91,0,0,0-.14-.51l-.41-1.19h0V235l.15-3.23.53-.7h0l1.1-1.17.5-.83h-.57l-.61.7-.5-.54a.89.89,0,0,0,0-.56l.66-2.07.47-.77h0l.58-1.12.39-.53.18-.57.4-.56.17-.57,1.13-2.29h0l.4-.58.17-.53.43-.6a1,1,0,0,0,.17-.5l.4-.67a.72.72,0,0,0,.15-.49l.42-.63a.89.89,0,0,0,.15-.5l.43-.65.69-1.67.55-1.15h0l.53-1.13a.58.58,0,0,0,.1-.4l.43-.72a.82.82,0,0,1,.14-.55l1.11-1.67.52-1.12v-.58a.82.82,0,0,0,.18-.52l.34-.6.83-1.7.6-.57.5-1.2v-1c.22-.51.42-1,.62-1.56Zm-19.86,30h-.12l-.37-.53H420l.21-.54h0l.5-.65a.86.86,0,0,1,.39,0H422l-.12.6-.43.57-.2.54Z" transform="translate(0.2 0.2)" style="fill:#a62279"/><path d="M436.53,231.6h0l.25-.51.4-.62.58-1.22-.35-.21-.65.91a.74.74,0,0,0-.2.5l-.43.6a.85.85,0,0,0-.25.5l-.42.6h0l-.42.59h.62l.45-.62Z" transform="translate(0.2 0.2)" style="fill:#a62279"/><path d="M328.39,227.08h0l.4-.48.15-.55.53-1.15a1,1,0,0,0,.1-.45l.33-.78a.59.59,0,0,0,.2-.4l.42-.64a.78.78,0,0,0,.13-.52l.42-.61a.75.75,0,0,0,.15-.54l.35-.66a.71.71,0,0,0,.15-.52l.42-.62a.67.67,0,0,0,.15-.51l.42-.62.76-1.67.45-.68a.71.71,0,0,0,.14-.42h0c.16-.23.31-.48.48-.73h0l.4-.55a.91.91,0,0,0,.2-.52l.45-.62a.66.66,0,0,0,.15-.43l.48-.72h0l.42-.55a.78.78,0,0,0,.19-.48l.48-.65a.63.63,0,0,0,.15-.39l.48-.66.49-.64.65-1.07.5-.63.65-1.07h0l.5-.66h0l.46-.52,1.27-1.67.55-.63h0l.54-.59h0l.5-.55h0l.5-.53h0l.48-.52h.08l.5-.5h0l.6-.53,1.34-1,1.52-.63h.85a.79.79,0,0,0,.48.1l.67,1V204l-.09,1-.45,2.4V208l-.46,1.92.68.15.32-1.66.45-2.34a.59.59,0,0,0,0-.55l.6-3.94v-3.4l-1.07-1.67c-1.53-1.21-2.7-.08-3.92.64l-1.25,1-.58.55-2.79,2.78h0c-.2.2-.38.42-.58.64l-.5.58-.5.6h0l-.45.5a.6.6,0,0,0-.22.42l-.52.63-.53.67h0l-.47.55a.5.5,0,0,0-.16.4l-.54.73h0l-.46.59-.65,1.15h0l-.44.55a.81.81,0,0,0-.2.45l-.48.7h0l-.42.55a.85.85,0,0,0-.2.5l-.45.63a.71.71,0,0,0-.15.44l-.45.7a.54.54,0,0,0-.15.38l-.47.75h0l-.41.55a1,1,0,0,0-.19.52l-.43.63-.74,1.56-.45.7a.44.44,0,0,0-.11.4l-.47.73a.47.47,0,0,0-.12.38l-.45.75a.46.46,0,0,0-.1.39l-.45.75a.51.51,0,0,0-.11.41l-.44.74a.6.6,0,0,0-.11.43l-.42.69a.83.83,0,0,0-.15.48l-.4.67a.82.82,0,0,0-.12.53l-.51,1.17a.8.8,0,0,0,0,.53h.9A3.37,3.37,0,0,1,328.39,227.08Z" transform="translate(0.2 0.2)" style="fill:#a62279"/></g></svg>