<svg id="Layer_1" data-name="Layer 1" xmlns="http://www.w3.org/2000/svg" width="90" height="18.63" viewBox="0 0 90 18.63">
  <title>artas</title>
  <g>
    <path d="M38.79,52.75l4.15,6.07h-4l-3.66-5.51H31.17v5.53H27.79V44.6c1.82-.18,3.68-.1,5.51-.1a39.37,39.37,0,0,1,5.43.17,4.86,4.86,0,0,1,3.48,1.63,4,4,0,0,1,.32,3.64C41.86,51.57,40.26,52.08,38.79,52.75ZM31.23,47v4c1.39,0,2.78,0,4.16,0,1.06,0,2.49,0,3.32-.77A2,2,0,0,0,39,47.88c-.57-1-1.92-.88-2.92-.9C34.46,47,32.85,47,31.23,47Z" transform="translate(-5 -40.68)" style="fill: #fff"/>
    <path d="M79.9,54.49h3.32a3.39,3.39,0,0,0,1.23,1.92,5.35,5.35,0,0,0,2.6.73c1.46.12,4.62-.27,4.35-2.38a1.45,1.45,0,0,0-1.3-1.26c-1.42-.27-2.85-.4-4.27-.68a11.82,11.82,0,0,1-3.73-1.11,3.49,3.49,0,0,1-1.53-4.16,4,4,0,0,1,1.49-2.07,8.85,8.85,0,0,1,4.34-1.34,10.89,10.89,0,0,1,4.9.66,4.32,4.32,0,0,1,2.93,3.9H91a4.27,4.27,0,0,0-4-2.5,4,4,0,0,0-2.39.84,1.57,1.57,0,0,0-.25,2.18c.62.75,1.93.73,2.8.85,1.16.16,2.32.33,3.48.53,1.72.31,3.47.9,4.17,2.65a3.84,3.84,0,0,1-1.39,4.5,9,9,0,0,1-4.09,1.43,14.18,14.18,0,0,1-4.55-.11,7.22,7.22,0,0,1-3.61-1.63A3.92,3.92,0,0,1,79.9,54.49Z" transform="translate(-5 -40.68)" style="fill: #fff"/>
    <path d="M62.23,58.89H58.55l7.77-14.34h4.39l7.76,14.27h-4L68.26,47.08Z" transform="translate(-5 -40.68)" style="fill: #fff"/>
    <path d="M50.34,46.93H44.56V44.57H59.5v2.3H53.74v12h-3.4Z" transform="translate(-5 -40.68)" style="fill: #fff"/>
    <path d="M15.13,47.08l-2.61,5-2.09-2.56,2.77-5h4.37l7.79,14.27H21.28Z" transform="translate(-5 -40.68)" style="fill: #fff"/>
    <path d="M14.66,55.29c-4-.14-10.46-10-9.58-14.61,1.38,2.57,2.6,5.21,4.13,7.68q1.15,1.86,2.48,3.6A20.92,20.92,0,0,0,14.66,55.29Z" transform="translate(-5 -40.68)" style="fill: #fff"/>
    <path d="M11.31,54.53l-2.2,4.33H5.45L9,52.35Z" transform="translate(-5 -40.68)" style="fill: #fff"/>
    <path d="M70.52,55.72a2.06,2.06,0,0,1-2.07,2,2,2,0,1,1,.11-4A2.08,2.08,0,0,1,70.52,55.72Z" transform="translate(-5 -40.68)" style="fill: #fff"/>
  </g>
</svg>
