<svg id="Layer_1" data-name="Layer 1" xmlns="http://www.w3.org/2000/svg" width="90" height="33.35" viewBox="0 0 90 33.35">
  <title>williams-center</title>
  <g>
    <path d="M61.41,66.64c0-.08,0-.16-.08-.24l-.09-.25h-.88l-.09.25a2.25,2.25,0,0,0-.08.24h-.53c.09-.25.17-.47.24-.68l.23-.59c.07-.19.14-.35.21-.52l.22-.48h.49c.07.16.14.32.22.48l.22.52.22.59c.08.21.16.43.24.68Zm-.61-1.76a.59.59,0,0,0,0,.13l-.08.2q0,.11-.09.24c0,.09-.07.18-.11.28h.65l-.1-.28-.09-.25L60.85,65l-.05-.12Z" transform="translate(-5 -33.32)" style="fill: #fff"/>
    <path d="M64.64,64.37v.44H64v1.82h-.5V64.81h-.69v-.44Z" transform="translate(-5 -33.32)" style="fill: #fff"/>
    <path d="M69.23,64.61c0,.09,0,.2.08.3l.1.35c0,.12.08.24.11.36s.08.23.11.33q0-.17.09-.36c0-.13.06-.27.08-.4l.08-.42c0-.14.05-.27.07-.4h.53c-.08.38-.16.76-.26,1.15s-.21.76-.33,1.11h-.46c-.08-.21-.16-.43-.23-.65l-.21-.7-.21.7c-.07.23-.14.44-.22.65H68.1q-.18-.52-.33-1.11c-.1-.39-.19-.78-.26-1.15h.55c0,.13,0,.26.07.4l.09.42c0,.13,0,.27.08.4s.06.25.09.36c0-.1.08-.22.12-.34s.07-.24.11-.36l.09-.34c0-.11.06-.21.08-.3Z" transform="translate(-5 -33.32)" style="fill: #fff"/>
    <path d="M71.78,64.37h.51v2.27h-.51Z" transform="translate(-5 -33.32)" style="fill: #fff"/>
    <path d="M75.31,66.2v.44H73.8V64.37h.5V66.2Z" transform="translate(-5 -33.32)" style="fill: #fff"/>
    <path d="M78.13,66.2v.44H76.62V64.37h.51V66.2Z" transform="translate(-5 -33.32)" style="fill: #fff"/>
    <path d="M79.43,64.37h.51v2.27h-.51Z" transform="translate(-5 -33.32)" style="fill: #fff"/>
    <path d="M83,66.64a2.25,2.25,0,0,0-.08-.24c0-.09-.06-.17-.08-.25h-.89a1.83,1.83,0,0,0-.08.25,2.25,2.25,0,0,0-.08.24h-.53c.08-.25.16-.47.24-.68s.15-.39.22-.59l.22-.52c.07-.16.14-.32.22-.48h.49c.08.16.15.32.22.48s.15.34.22.52.15.38.23.59.15.43.24.68Zm-.61-1.76,0,.13-.07.2-.1.24c0,.09-.07.18-.1.28h.65l-.1-.28-.1-.25L82.41,65l-.06-.12Z" transform="translate(-5 -33.32)" style="fill: #fff"/>
    <path d="M85.38,64.37l.14.27.16.34c.06.13.11.25.16.38l.16.36c0-.11.1-.23.15-.36l.17-.38c.05-.12.11-.23.16-.34l.13-.27h.47q0,.22.06.51c0,.19,0,.38,0,.59s0,.4,0,.6,0,.39,0,.57h-.5c0-.21,0-.46,0-.71s0-.53,0-.79c0,.09-.09.2-.14.31l-.14.33c0,.11-.09.22-.14.32l-.11.26h-.35l-.11-.26c0-.1-.09-.21-.14-.32l-.14-.33-.13-.31c0,.27,0,.53-.05.79s0,.5,0,.71h-.5c0-.17,0-.37,0-.57l0-.6c0-.2,0-.39,0-.59s0-.36.06-.51Z" transform="translate(-5 -33.32)" style="fill: #fff"/>
    <path d="M89.31,66.25a.55.55,0,0,0,.18,0,.22.22,0,0,0,.11,0,.13.13,0,0,0,.06-.07.31.31,0,0,0,0-.1.22.22,0,0,0-.1-.18,1.46,1.46,0,0,0-.36-.16,2,2,0,0,1-.22-.09.82.82,0,0,1-.2-.12.66.66,0,0,1-.14-.2.6.6,0,0,1-.06-.27.71.71,0,0,1,.06-.28.58.58,0,0,1,.17-.21.82.82,0,0,1,.26-.14,1,1,0,0,1,.35,0,1.28,1.28,0,0,1,.66.15l-.15.4-.21-.08a.86.86,0,0,0-.28,0,.47.47,0,0,0-.26,0,.18.18,0,0,0-.08.15.2.2,0,0,0,0,.11.3.3,0,0,0,.08.08l.13.06.15.06a2.85,2.85,0,0,1,.31.12,1.07,1.07,0,0,1,.22.15.51.51,0,0,1,.12.2.66.66,0,0,1,0,.28.58.58,0,0,1-.22.49,1.07,1.07,0,0,1-.67.17,1.27,1.27,0,0,1-.28,0l-.21,0a1.28,1.28,0,0,1-.27-.11l.14-.41a.87.87,0,0,0,.25.1A1.15,1.15,0,0,0,89.31,66.25Z" transform="translate(-5 -33.32)" style="fill: #fff"/>
    <path d="M64.39,36.3v.79h-2v5.55h-.89V37.08h-2v-.79Z" transform="translate(-5 -33.32)" style="fill: #fff"/>
    <path d="M69.3,36.3h.88v6.33H69.3V39.71H66.2v2.92h-.88V36.3h.88v2.64h3.1Z" transform="translate(-5 -33.32)" style="fill: #fff"/>
    <path d="M71.75,42.63V36.3h3.87v.76h-3v1.88h2.65v.74H72.64v2.19h3.21v.76Z" transform="translate(-5 -33.32)" style="fill: #fff"/>
    <path d="M62,45.29a3.9,3.9,0,0,1,2.18.51,1.75,1.75,0,0,1,.76,1.56,1.8,1.8,0,0,1-.31,1.08,2.05,2.05,0,0,1-.88.66c.13.15.26.34.4.54s.28.42.42.64.27.45.39.69l.35.71H63.68l-.35-.63c-.12-.21-.24-.42-.37-.62s-.25-.39-.37-.57-.24-.34-.36-.49h-.71v2.31H60.1V45.45a7.9,7.9,0,0,1,1-.13C61.4,45.29,61.69,45.29,62,45.29ZM62,46.5h-.28l-.23,0v1.72h.4a2.49,2.49,0,0,0,1.15-.2.83.83,0,0,0,0-1.35,2.32,2.32,0,0,0-1-.19Z" transform="translate(-5 -33.32)" style="fill: #fff"/>
    <path d="M66.19,51.68V45.35h4.27v1.2H67.62v1.24h2.53V49H67.62v1.52h3.07v1.2Z" transform="translate(-5 -33.32)" style="fill: #fff"/>
    <path d="M75.41,49.55a3.72,3.72,0,0,1-.11.88,1.68,1.68,0,0,1-1.07,1.2,3,3,0,0,1-1.12.18,3.16,3.16,0,0,1-1.06-.15,2.79,2.79,0,0,1-.74-.35l.47-1.11a3,3,0,0,0,.57.27,1.47,1.47,0,0,0,.65.12.93.93,0,0,0,.75-.25,1.3,1.3,0,0,0,.23-.86V45.35h1.43Z" transform="translate(-5 -33.32)" style="fill: #fff"/>
    <path d="M79.25,51.81a3.24,3.24,0,0,1-1.15-.2,2.13,2.13,0,0,1-.8-.52,2.19,2.19,0,0,1-.47-.79,3.5,3.5,0,0,1-.15-1V45.35h1.44v3.81a2,2,0,0,0,.08.65,1.26,1.26,0,0,0,.24.44.77.77,0,0,0,.37.24,1.26,1.26,0,0,0,.47.08,1.19,1.19,0,0,0,.84-.32,1.45,1.45,0,0,0,.32-1.09V45.35h1.43v3.94a3.24,3.24,0,0,1-.16,1,2,2,0,0,1-.47.81,2.1,2.1,0,0,1-.81.51A3.38,3.38,0,0,1,79.25,51.81Z" transform="translate(-5 -33.32)" style="fill: #fff"/>
    <path d="M85.12,51.68c-.25-.53-.5-1.08-.74-1.66s-.48-1.13-.7-1.69-.42-1.1-.61-1.61-.34-1-.48-1.37h1.57c.11.37.24.76.39,1.18L85,47.79l.43,1.2c.14.4.27.72.39,1q.18-.42.39-1c.15-.39.29-.78.44-1.21s.3-.84.44-1.26.28-.82.4-1.19H89c-.14.41-.3.86-.49,1.37s-.39,1-.6,1.61-.45,1.12-.7,1.7-.49,1.12-.74,1.65Z" transform="translate(-5 -33.32)" style="fill: #fff"/>
    <path d="M93.47,51.68,93.25,51,93,50.31H90.53l-.24.69-.22.68H88.59c.24-.68.46-1.31.68-1.89s.42-1.12.62-1.63.41-1,.61-1.46.4-.91.62-1.35h1.35c.21.44.41.89.61,1.35s.41.95.61,1.46.42,1.05.63,1.63.44,1.21.68,1.89Zm-1.71-4.89a4,4,0,0,1-.14.38c-.06.16-.13.34-.2.55l-.27.68c-.1.25-.19.51-.29.78h1.81c-.1-.27-.2-.53-.28-.78s-.18-.48-.26-.69l-.22-.54c-.06-.17-.11-.29-.15-.38Z" transform="translate(-5 -33.32)" style="fill: #fff"/>
    <path d="M62.88,60.87a3.33,3.33,0,0,1-1.21-.22,2.54,2.54,0,0,1-.94-.64,2.82,2.82,0,0,1-.6-1,4.52,4.52,0,0,1-.22-1.41,4,4,0,0,1,.25-1.41,2.9,2.9,0,0,1,.65-1,2.7,2.7,0,0,1,1-.64,3.12,3.12,0,0,1,1.17-.22,4.25,4.25,0,0,1,.71.06,5.41,5.41,0,0,1,.55.12,2.39,2.39,0,0,1,.37.15l.2.11-.26.73a1,1,0,0,0-.23-.12l-.36-.13a3.2,3.2,0,0,0-.42-.1A2.56,2.56,0,0,0,63,55a2.2,2.2,0,0,0-.91.17,1.88,1.88,0,0,0-.68.5,2.33,2.33,0,0,0-.44.8,3.77,3.77,0,0,0-.15,1.06,3.6,3.6,0,0,0,.14,1,2.06,2.06,0,0,0,.39.8,1.66,1.66,0,0,0,.66.51,2.26,2.26,0,0,0,.92.19A3.86,3.86,0,0,0,64,60a4.36,4.36,0,0,0,.6-.23l.23.73a1,1,0,0,1-.23.11,2.83,2.83,0,0,1-.41.14l-.59.11A5.37,5.37,0,0,1,62.88,60.87Z" transform="translate(-5 -33.32)" style="fill: #fff"/>
    <path d="M65.81,60.74V54.4h3.87v.76h-3V57h2.64v.74H66.71V60H69.9v.77Z" transform="translate(-5 -33.32)" style="fill: #fff"/>
    <path d="M75.38,60.74c-.13-.23-.28-.48-.46-.76s-.36-.57-.56-.87-.41-.61-.63-.92l-.64-.9-.62-.82-.56-.67v4.94H71V54.4h.71c.28.31.59.66.91,1.07s.66.82,1,1.25.62.85.9,1.26.53.79.72,1.11v-4.7h.87v6.34Z" transform="translate(-5 -33.32)" style="fill: #fff"/>
    <path d="M81.91,54.4v.77h-2v5.57H79V55.17H77V54.4Z" transform="translate(-5 -33.32)" style="fill: #fff"/>
    <path d="M82.84,60.74V54.4H86.7v.76h-3V57h2.65v.74H83.72V60h3.21v.77Z" transform="translate(-5 -33.32)" style="fill: #fff"/>
    <path d="M91.15,58.08l.37.48c.15.2.3.42.46.66s.31.49.47.75.27.5.39.76h-1c-.12-.23-.25-.46-.39-.7s-.29-.47-.43-.68-.29-.42-.44-.61-.27-.35-.39-.49H88.93v2.49h-.88V54.5a4.63,4.63,0,0,1,.83-.13l.85,0a3.49,3.49,0,0,1,2,.5,1.73,1.73,0,0,1,.7,1.5,1.83,1.83,0,0,1-.33,1.08A2,2,0,0,1,91.15,58.08Zm-1.35-3a6.73,6.73,0,0,0-.86,0v2.39h.63a7.52,7.52,0,0,0,.82-.05,2,2,0,0,0,.62-.17A1,1,0,0,0,91.4,57a1.33,1.33,0,0,0,.13-.62,1.21,1.21,0,0,0-.13-.59,1.09,1.09,0,0,0-.37-.37,1.59,1.59,0,0,0-.55-.2A5.2,5.2,0,0,0,89.8,55.11Z" transform="translate(-5 -33.32)" style="fill: #fff"/>
    <polygon points="37.48 0 35.65 4.09 30.32 16.04 32.74 21.44 40.48 4.09 43.38 4.09 32.74 27.93 27.43 16.04 34.59 0 29.76 0 25.01 10.63 20.27 0 15.44 0 22.6 16.04 17.29 27.93 6.66 4.09 9.55 4.09 17.29 21.44 19.7 16.04 14.38 4.09 12.55 0 0 0 14.87 33.32 19.7 33.32 19.72 33.32 25.01 21.45 30.31 33.32 30.33 33.32 35.16 33.32 50.03 0 37.48 0" style="fill: #fff"/>
  </g>
</svg>
