<svg version="1" xmlns="http://www.w3.org/2000/svg" width="1365.333" height="1365.333" viewBox="0 0 1024.000000 1024.000000"><path d="M487.8 51.5c-.1.1-4.8.6-10.3.9-10.2.7-14.5 1.1-22.5 2.2-9.5 1.2-11.6 1.5-14 1.9-1.4.3-4.3.7-6.5 1.1-15.3 2.2-47.6 10.2-66.5 16.4-39.6 13.1-79.2 32.6-114.2 56.1-5.1 3.4-9.5 6.5-9.8 6.8-.3.4-1.7 1.4-3.2 2.3-3.1 2-27.5 21.3-29.9 23.7-.9.9-5.1 4.7-9.5 8.6-33.7 30.2-67.1 72-90.6 113.5-6.3 11.1-21.8 41.9-21.8 43.4 0 .4-.9 2.6-1.9 5-7.7 16.8-17.4 46.1-23.1 69.7-3 12.8-3.4 14.7-5 23.7-.5 3-1.1 6.1-1.4 7-.3 1-.7 3.7-1 6.2-.3 2.5-.8 5.5-1 6.7-.3 1.2-.8 5.3-1.1 9-.4 3.7-.9 7.6-1 8.5-2.6 13.5-2.5 78.7 0 95.8.2 1.4.6 4.7 1 7.5.3 2.7.8 6.7 1.1 8.7.3 2.1.7 5 .9 6.5.9 7.5 3 18.2 6.2 31.8 1.9 8.2 3.6 15.8 3.8 16.7 1.3 6 8.7 28.6 13.6 41.8 15.1 40.4 33.8 75.1 59.8 111 4.1 5.8 8.3 11.4 9.2 12.5.9 1.1 4.5 5.4 7.9 9.5 15.9 19.2 41 44.6 57 57.6 1.9 1.6 4.4 3.7 5.5 4.7 2.9 2.7 26.9 20.6 34 25.4 10.1 6.9 20.4 13.3 21.1 13.3.4 0 1.5.6 2.3 1.4 3.4 2.9 34.5 19 52.2 26.9 18.3 8.2 52.5 19.5 75.9 25.1 11 2.6 13.1 3.1 21.8 4.6 3 .5 6.1 1.1 7 1.4 1 .3 4 .7 6.7 1.1 2.8.3 5.7.8 6.5 1 .8.2 4.5.6 8.2 1 3.7.3 7.7.8 9 1 8.3 1.3 23.9 1.9 47.8 1.9 24.5 0 35.3-.4 48.5-2 12.5-1.5 20.8-2.6 22.9-3 1.1-.2 3.6-.6 5.6-.9 2-.3 4.7-.7 6-1 1.4-.3 4.1-.8 6-1.1 20.1-3.4 62.6-16.2 85.5-25.6 11.1-4.6 29.7-13.1 32.5-14.8.8-.5 3.9-2.1 6.7-3.5 19.9-10 52.2-31.1 72.6-47.4 21-16.8 34.1-29.1 54.7-51.1s45.6-56.7 61.9-86.1c6-10.8 16-31.2 22.3-45.9 8.9-20.5 22.7-63.5 25.3-78.9.3-1.9.8-3.7 1-4 .7-1.2 4.7-25.1 6-35.6.3-2.8.8-6.4 1-8 1.4-10.1 2-26.4 2-50.5-.1-27.8-.9-43.6-3-57.5-.3-1.7-.7-5-1-7.5-.3-2.5-.7-5.4-.9-6.5-.2-1.1-.9-5.4-1.6-9.5-.6-4.1-1.8-10-2.5-13-.8-3-1.6-6.9-1.8-8.5-.9-5.9-7.8-30.6-12.3-44.2-11.7-35.1-27.9-69.1-48.2-101.3-3.6-5.8-6.9-10.7-7.2-11-.3-.3-1.4-1.9-2.4-3.5-2.5-4-19.3-26.4-23.1-30.9-23.8-27.7-38.3-42.2-61.5-61.8-9.5-7.9-15.6-12.6-33.5-25.6-4.6-3.3-33.2-21.2-34-21.2-.2 0-2.6-1.3-5.2-2.8-17.4-10.3-48.9-24.2-73.8-32.7-31.8-10.9-69.1-18.9-102.5-22.1-3-.3-7.3-.8-9.5-1-4.4-.6-60.1-1.4-60.7-.9z"/></svg>