<svg version="1" xmlns="http://www.w3.org/2000/svg" width="1365.333" height="1365.333" viewBox="0 0 1024.000000 1024.000000"><path d="M245 311.5c-3.6.8-7.5 1.6-8.8 1.9-3.8.8-16.5 7.3-20.2 10.3-12.7 10.4-18.8 20.9-20.8 36-2.9 21.5 6.6 41.3 25.5 53.3 5.1 3.2 15.9 7.5 21.3 8.4 1.9.3 4.6.9 6 1.1 1.4.3 7.5.6 13.5.7 33 .1 56.4-14.9 64.7-41.6 2.5-8.2 2.9-21.2.8-29.6-4.4-18.7-20.2-33.5-41.7-39.1-10-2.6-31-3.3-40.3-1.4zM527.2 441.5c-20 3.6-38.7 12.7-52.4 25.5l-2.3 2.1-.3-12.3-.3-12.3-50.7.2c-27.9.1-51.7.2-52.8.2l-2.1.1v269l55.6-.2 55.6-.3.1-71.5c.1-39.3.4-73.1.8-75 3.8-19.4 12.8-30.1 27.2-32.7 17.7-3.2 29.9 5.4 34.3 24.2 1.9 8.5 2 9.9 2 83.7l.1 71.8h111.5v-70.3c-.1-71 .2-77.3 3.7-87.5 3.1-8.9 9.7-16.3 17.8-19.9 10.6-4.8 25.5-2.7 32.3 4.5 4.8 5.1 8.8 15.5 10.1 26.2.3 1.9.5 35.8.5 75.2l.1 71.8h111.5l-.1-83.3c0-45.7-.4-86.6-.8-90.7-2.4-24.6-10-46.6-21.1-61.5-11.9-15.9-31.9-29.2-52-34.5-11.7-3-16.3-3.5-33.5-3.5-17.4 0-21.6.5-34.5 4.1-7.8 2.2-27.1 10.5-28.5 12.3-.3.3-3.2 2.4-6.4 4.6-3.3 2.2-9.2 7.3-13.1 11.3l-7.2 7.2-3.9-4.7c-15.2-18.7-32.8-28.8-58.2-33.6-9.2-1.8-33.8-1.9-43-.2zM210.8 444.8l-4.8.3V714h111l.1-4.8c.4-25.8 0-263.4-.4-263.9-.6-.5-97.5-1-105.9-.5z"/></svg>