<svg id="Layer_1" data-name="Layer 1" xmlns="http://www.w3.org/2000/svg" width="90" height="42.01" viewBox="0 0 90 42.01">
  <title>btl</title>
  <g>
    <path d="M26,64.88,37.93,53,41,56.05,26,71,26,71h-.07a1.58,1.58,0,0,1-.15-.12L5,50.06,5,50,26,29,41,44c-1,1-2,2-3,3-1-1-2-2-3-3l-3-3-3-3-3-3c-.26.15-14.61,14.46-14.9,14.86C11.26,50.23,25.63,64.56,26,64.88Z" transform="translate(-5 -28.99)" style="fill: #fff"/>
    <path d="M74,29,95,50c-.12.24-20.57,20.65-21,21-.23-.14-8.48-8.37-8.75-8.74l3-3,2.85,2.85L74,64.85c5-5,9.94-9.94,14.91-14.9-.11-.24-14.5-14.59-14.86-14.87-1.9,1.87-3.77,3.77-5.7,5.69-1-1-2-2-3-3C65.45,37.49,73.72,29.2,74,29Z" transform="translate(-5 -28.99)" style="fill: #fff"/>
    <path d="M50.05,71l-8.76-8.77c1-1,2-2,3-3,1,.94,1.9,1.89,2.85,2.84L50,64.92c1.37-1.32,2.68-2.67,4-4s2.68-2.67,4-4l4-4,3,3.06Q57.58,63.47,50.05,71Z" transform="translate(-5 -28.99)" style="fill: #fff"/>
    <path d="M65,44l-3,3-12-12c-.68.61-1.28,1.26-1.91,1.88s-1.28,1.28-1.92,1.91l-1.87,1.88-3-3.06L50,29Z" transform="translate(-5 -28.99)" style="fill: #fff"/>
    <path d="M26.4,57.24l-8-8.05.33-.37c1.12-1.13,2.23-2.27,3.36-3.39A9.92,9.92,0,0,1,24,43.85a3.82,3.82,0,0,1,1.44-.51,2.24,2.24,0,0,1,1.68.49,2.66,2.66,0,0,1,1.1,2.2c0,.25,0,.5,0,.79a2.3,2.3,0,0,0,.28-.06,2.66,2.66,0,0,1,3.08.92,5.16,5.16,0,0,1,.43.61A2.87,2.87,0,0,1,32,51a5.9,5.9,0,0,1-1.18,1.73c-1.42,1.46-2.87,2.91-4.3,4.36Zm.76-4.56.07,0c.44-.43.88-.86,1.3-1.3a1.75,1.75,0,0,0,.48-.92,1.09,1.09,0,0,0-.41-.77.78.78,0,0,0-1-.15,2.14,2.14,0,0,0-.5.32c-.4.36-.79.73-1.18,1.1-.1.11-.18.23-.25.32Zm-3-2.89a12.79,12.79,0,0,0,1.39-1.48,1,1,0,0,0,.12-.23.91.91,0,0,0-.3-1.08.76.76,0,0,0-1.06,0,2.37,2.37,0,0,0-.34.29c-.33.31-.64.64-1,1l-.18.21Z" transform="translate(-5 -28.99)" style="fill: #fff"/>
    <path d="M55.65,53.17,53,55.82l-2.94-2.94-3-3-2.36,2.3-2.05-2.08L50,42.78l2.08,2.08-2.37,2.38c1,1,2,2,3,3S54.66,52.18,55.65,53.17Z" transform="translate(-5 -28.99)" style="fill: #fff"/>
    <path d="M75.87,51.68l3.56-3.58L81.34,50q-3,3.06-6.21,6.21l-8-8,2.66-2.63Z" transform="translate(-5 -28.99)" style="fill: #fff"/>
  </g>
</svg>
