<svg id="Layer_1" data-name="Layer 1" xmlns="http://www.w3.org/2000/svg" width="90" height="50.77" viewBox="0 0 90 50.77">
  <title>fuck-cancer</title>
  <g>
    <path d="M11.75,53.82c1,2.29,1.91,4.59,2.91,7L19.58,58l-2.94-6.63c-2.83,1-5.84,1.84-8.57,3.09C5.74,55.51,5.62,57.9,5,60.11v6.77c.58,1.54,1.26,3,1.93,4.54l4.64,3.79,7.86-5.79-3.67.63a.2.2,0,0,0-.11,0l-.22.07.22-.07a.2.2,0,0,1,.11,0,6.22,6.22,0,0,1-4.43-5.32,49.9,49.9,0,0,1,0-5.19c0-1.9,0-3.79,0-5.68Z" transform="translate(-5 -24.62)" style="fill: #fff"/>
    <path d="M92,56.89l-3.34,3.5,2.77,4.35,3.54-3v-.8Z" transform="translate(-5 -24.62)" style="fill: #fff"/>
    <path d="M24.36,56.31l2.76-20.5H31.3l-.09-2-7.31-1.2c-.94-.92-2.47-1.46-2-3.75A27.94,27.94,0,0,1,24.8,29a17.51,17.51,0,0,1,2.82.83,10.68,10.68,0,0,0,5.63.41c1.41-.29,2.81-.81,3.35-2.26a2.84,2.84,0,0,0-.87-3.31l-.37,2.26a47.94,47.94,0,0,0-7.85-2.12c-1.74-.21-3.79-.05-5.12,1.23s-1.48,3.12-1.4,4.82c.09,2.13-.23,3.9-2.29,5l2.2.14q1.3,10.2,2.6,20.39Z" transform="translate(-5 -24.62)" style="fill: #fff"/>
    <path d="M90.24,71.24A2.71,2.71,0,0,1,87.92,69a34.73,34.73,0,0,1-.06-5.86,8,8,0,0,0-.4-3.88,5.59,5.59,0,0,0-2.8-2.38L80,61.05l2.31-.31c.86,3.32.47,6.5.32,9.65l-1.48.76L86.89,75q3-2.53,6-5.11l-.18-.18Z" transform="translate(-5 -24.62)" style="fill: #fff"/>
    <path d="M52.05,69.62c0-2.77,0-5.54,0-8.31l1.31-.91L49.27,57l-4,3.25,0,0,0,0-1.17.17A4.77,4.77,0,0,0,41,56.88l-3.13,2.75a23.86,23.86,0,0,1,1.2,2.56,12.85,12.85,0,0,1,.22,3.28c0,1.17,0,2.33-.06,3.49a8.38,8.38,0,0,1-1,3.21L41.47,75l3.38-2.6c-1-3.79-.45-7.43-.42-11l.79-.83,1.6.18c.16,3,.11,6,.12,9,0,2.28.3,4.42,2.64,5.41l4.72-3.86C52.52,71.53,52.05,70.79,52.05,69.62ZM45.3,60.33a0,0,0,0,0,0,0A0,0,0,0,1,45.3,60.33Z" transform="translate(-5 -24.62)" style="fill: #fff"/>
    <path d="M29.69,57.42l-3.56,2.3L29,62.27c0,1.57,0,3.14,0,4.71,0,.77,0,1.54,0,2.3a5.35,5.35,0,0,1-.53,2,37.52,37.52,0,0,1,3.44,4.1l3.3-2.94c-2.42-3.37-1-7-1.24-10.45l1.45-.79Z" transform="translate(-5 -24.62)" style="fill: #fff"/>
    <path d="M34.17,37.41c1.26-.24,1.94.14,1.51,1.57l3.55.43L39.55,41l-1.74.87c-1.14-.5-.87-2.5-2.43-1.29l-.56-.71,0,1.61.4,1.51-5.06-1.66-.92,1.21-2.07.19,1.08,2.64.71-.24-.24-1.29a3.55,3.55,0,0,1,3.65-.29,11.13,11.13,0,0,0,1.62.81,4.51,4.51,0,0,0,1.61-.25,14.83,14.83,0,0,1,1.54,1.53,3.47,3.47,0,0,0,1.81,1,3.83,3.83,0,0,0,3.84-1.29l6.29-2.66.43,1.66C50,47.09,52.65,47.47,54.3,49l5.32-3.75c-2-.32-4.41-.74-5.21-2.85a10,10,0,0,1-.43-3.3c0-2.18,0-4.36,0-6.54-1.51.3-3.42.63-4.2,2.14a6.38,6.38,0,0,0-.51,2.41c-.11,1.44-.24,2.86-.39,4.3a15,15,0,0,1-1.69.87,8.22,8.22,0,0,1-2,.27L46,38.2l-.77-.65-.63,1.09-.76,3.11L42,41.38c-1-.21.62-1.66-.74-1.59a12.83,12.83,0,0,1,1.2-.89A3.9,3.9,0,0,1,44,38.57l.4-3.16h.87l.35.87-.35,1.27.77.65V35.43l-1.13-1.68a3.42,3.42,0,0,0-2.52-2.3,7.68,7.68,0,0,0-4.25-.09C35.3,32.1,33.31,34.47,34.17,37.41ZM39.8,43l-.23-.72L41,41.77l.24.67Z" transform="translate(-5 -24.62)" style="fill: #fff"/>
    <path d="M26.09,59.74l0,0h0l0,0Z" transform="translate(-5 -24.62)" style="fill: #fff"/>
    <path d="M21.25,65c.2,2.09-.3,4.31.21,6.35a6.17,6.17,0,0,0,3.17,3.81l3.52-3.64-1.84.27c-.07-4.14-.15-8.1-.22-12.06a8.1,8.1,0,0,0-3.85,1.79A4.33,4.33,0,0,0,21.25,65Z" transform="translate(-5 -24.62)" style="fill: #fff"/>
    <path d="M73.61,66.79c2-1.42,4.17-2.71,6.35-4.1l-3.73-5.95-4.4,2.14c-1.4.46-2.93,1.06-3.57,2.5-.78,1.76-.45,4-.42,5.9a8,8,0,0,0,5.89,7.83l5.3-4c-2.9.81-4.68-.66-6.24-2.64C73.06,67.88,73.17,67.1,73.61,66.79Zm-1.25-.05V59.46l3.47,5.29Z" transform="translate(-5 -24.62)" style="fill: #fff"/>
    <path d="M60.82,59.67c.72,1.47,1.37,3,2.1,4.59L67,62.07l-2.46-5-5,1.83c-1.21.25-2.74.53-3.51,1.62s-.77,3.16-.79,4.59c0,2-.31,4.43.57,6.28s3.06,2.79,4.71,3.85l5.38-3.85c-2-.12-4.39-.56-5.3-2.64a8.72,8.72,0,0,1-.53-3.43c0-2-.07-4-.1-6C60.26,59.43,60.71,59.46,60.82,59.67Z" transform="translate(-5 -24.62)" style="fill: #fff"/>
    <path d="M56.94,38,60.84,36l-2.5-5.06L54,32.58l0,0v.05h0Z" transform="translate(-5 -24.62)" style="fill: #fff"/>
    <path d="M41.58,47.6l9.37,4L51.57,50,41.9,46.61Z" transform="translate(-5 -24.62)" style="fill: #fff"/>
    <path d="M28.49,48.84a1.92,1.92,0,0,0,.68,2.78L37.38,48l-.21-.55C34.15,47,31.78,50.7,28.49,48.84Z" transform="translate(-5 -24.62)" style="fill: #fff"/>
    <path d="M63.17,30.32l.53-1.73.92.76L64,28.22c-1-.62-1.28-1.15-2.36-.33s-.5,1.78-.24,2.9Z" transform="translate(-5 -24.62)" style="fill: #fff"/>
    <path d="M64.7,29.44h0c.1,2.83.22,5.67.31,8.5,0,1.39.1,2.77.13,4.16a8.71,8.71,0,0,1,0,1.84,7.66,7.66,0,0,1-.76,1.58l-2.35-.57,4.87,4.51,4.39-3.82L70.11,45V40.9c2.27,3,3.83,6.14,7.21,7.5l6.55-4.9-2.81.68c-4-.69-5.94-4-8.64-6.55a24.39,24.39,0,0,1,7.43-5.84l1-.52-.13-.34-1.79.44L71.38,37l-1.53.65c.17-3.16.32-6.06.47-9h0l1-1.85L71,26.7l-1.46,1.48a5.4,5.4,0,0,0-5.18-2.75l-3-.5,0,.39,2.62.49c1.51,1.17,1.71,2.11.75,3.61l-.09-.07.06.11Z" transform="translate(-5 -24.62)" style="fill: #fff"/>
  </g>
</svg>
