<svg id="Layer_1" data-name="Layer 1" xmlns="http://www.w3.org/2000/svg" width="90" height="43.36" viewBox="0 0 90 43.36">
  <title>greg-mueller</title>
  <g>
    <path d="M94.79,47.88l-.26-.38-.81-.26h-.66l-1.72,0,0,0L91,46.53c-.16-.51-.43-.83-1-.62-.92.85-.92,1.06,0,1.91a.32.32,0,0,0,.29.09l.36.34h0c-.1.34-.19.67-.29,1l-.29.69a.39.39,0,0,0-.08.31h0l-.33.7-.23.34-.14.33-.64,1h0l-.28.35-.41.64-.64.72L87,54.7l-.37.32,0,0,0,0-.35.29L84.82,56a.32.32,0,0,0-.27,0,.57.57,0,0,0-.29,0l-.4-.29,0,0-.28-.43v-.6l1-1.41.33-.29h0l.37-.33.33-.33.33-.35.71-1.28v-.52a.28.28,0,0,0-.06-.25c-.34-.51-.69-.36-1,0l-.39.31-.62.67-.31.39h0l-.27.35a.35.35,0,0,0-.09.28l-.27.4a.43.43,0,0,0-.07.29l-.28.72c-.2.9-.77,1.79,0,2.69.34.52.75.83,1.38.45a.36.36,0,0,0,.3-.07l.33-.08,1-.58.37-.25.29-.19.34-.3.34-.32.64-.68h0l.28-.31a.36.36,0,0,0,.11-.26L89,53,89.63,52a.74.74,0,0,0,.12-.29l.21-.38a.67.67,0,0,0,.13-.3l.2-.38a.39.39,0,0,0,.09-.29l.3-.71.61-1.38a.29.29,0,0,0,.12-.27l2.65-.06.07,1.36-.07.32h0l-.31.69a.46.46,0,0,0-.11.27l-.36.71-.52,1.07a.51.51,0,0,0-.11.31L92.05,54a.29.29,0,0,0-.06.25l-.24.43a.48.48,0,0,0-.08.31l-.29.72a.47.47,0,0,0,0,.33.23.23,0,0,0,0,.24l-.27.78a.51.51,0,0,0-.06.3,1.27,1.27,0,0,0,0,1.74h0l.32.35h0l.17.22.19-.2.24-.19L91.72,59a.57.57,0,0,0-.08-.28v-1.7a.36.36,0,0,0,0-.32l.32-1,0,0,.3-.69a.63.63,0,0,0,0-.3l.23-.39.69-1.7.48-1.33.21-.37a.46.46,0,0,0,.11-.32l.21-.35.08-.34C94.82,49.3,95.28,48.68,94.79,47.88Z" transform="translate(-5 -28.32)" style="fill: #fff"/>
    <path d="M48.92,39a.33.33,0,0,0-.07-.26l-.3-.36-.35-.25-.68,0-.75.55-.33.31-.31.33-.33.37-.33.37-.28.36-.69,1-.42.65-.27.38h0l-.26.33a.57.57,0,0,0-.11.28l-.3.4-.36.67h0l-.26.34-.4.71-.24.31-.12.32-.26.36a.42.42,0,0,0-.1.28h0l-.29.4c-.11.23-.23.45-.34.68h0l-.24.35a.43.43,0,0,0-.11.3l-.25.36a.57.57,0,0,0-.1.31l-.26.39a.51.51,0,0,0-.09.27l-.26.39c0,.11,0,.22-.08.33l-.24.37a.43.43,0,0,0-.12.31l-.23.36a.51.51,0,0,0-.13.31l-.22.37a.51.51,0,0,0-.13.31l-.31.6L37.33,54h0l-.35.67-.35.34-.28.45a.25.25,0,0,1-.07.22l0,.34a1.07,1.07,0,0,1-.25,0l-.38,0-.15,0,.14-.66.29-.08a.88.88,0,0,0-.07-.33l.16-.33.24-.38v-.64a.53.53,0,0,0,0-.33c.14-.45.27-.9.4-1.35l.25-.69L37,51l.34-1,.28-.71.35-1.7.34-1.36,0-.33.29-1a.42.42,0,0,0,.06-.31l.27-1,.06-1c0-.69,0-1.37,0-2.05L39,40.08c-.21-.45-.43-.86-1-.33l-.72.55-.28.2-.61.62-.47.63-.31.35-.29.37-.64,1-.47.88-.55.81h0a.32.32,0,0,0-.12.26l-.61,1.09-.31.69a.43.43,0,0,0-.08.31l-.23.35-.5,1.34-.2.38a.35.35,0,0,0-.09.28l-.22.38-.14.61-.24.42a.59.59,0,0,0-.06.32l-.3.7a.5.5,0,0,0,0,.32l-.29.69a.36.36,0,0,0-.06.3c-.21.59-.42,1.17-.62,1.76l-.08,0h0l-.29.36,0,.36-.05,0,.06.37-.07,0-.28.73a1.15,1.15,0,0,0,0,.32,1.38,1.38,0,0,0-.14.3l-.21.41a.65.65,0,0,0,0,.31,1,1,0,0,0-.14.29,2.3,2.3,0,0,0-.26,0l0-.7a.65.65,0,0,0,0-.31l.11-.32.22-.41,0-.64c0-.11,0-.22,0-.34h0l0,0h0l0,0,.28,0-.06-.39V55a1.7,1.7,0,0,0,.1-.32l.21-.41,0-.63.08-.61.25-.75.09-.61.27-.76a.6.6,0,0,0,.05-.3l.27-.72.09-.59.22-.42,0-.34a.39.39,0,0,0,.06-.3l.35-1,.22-.4.05-.34a.42.42,0,0,0,.07-.27l.24-.41.1-.59.32-.76.3-.68.37-1,.34-.69h0l.27-.34a.3.3,0,0,0,.11-.24l.33-.42h0l.31-.37v0l.27-.31.19-.31L35,39.4l.38-.57.36-.43L36,38l.32-.37.71-1,.25-.36.17-.29.26-.35.45-.66.25-.35.3-.38.67-1a1.11,1.11,0,0,0,.14-.29l.23-.37.41-.67.24-.38.36-.65.36-.66.24-.4a.64.64,0,0,0,.08-.3c.36-.35.48-.68,0-1l0,0-.12-.23L41,28.5a.43.43,0,0,0-.29.07l-.36.28h0l-.37.32-.32.37-.32.34-.33.36-.61.68-.19.29-.56.71-.42.37-.29.28-.28.45-.5,1-.25.27-.27.46-.33,1a.49.49,0,0,0-.1.25L34.59,37l-.32.69a.77.77,0,0,0-.11.3l-.21.38a.64.64,0,0,0-.11.3l-.29.64-.24.42a.4.4,0,0,0-.09.29l-.23.38-.09.35-.3.68a.42.42,0,0,0-.08.26h0c-.08.14-.17.28-.26.42l-1,1.36-.66.72-.34.35h0l-.64.65-.36.35-.36.35-.35.33-.69.65-.36.33-.35.31-.69.62-.28.19-.7.58h0l-.36.28-.43.36-.59.36h0l-.44.32a.19.19,0,0,0-.22.07l-.37.23a.56.56,0,0,0-.3.12L22,51l-.69,0-.56-.79c-.2.83-.31,1.36.57,1.4h.34L23.05,51h0l.39-.21.66-.43a.36.36,0,0,0,.29-.14l.73-.56h0l.34-.27.29-.18.7-.58,0,0,0,0,.71-.61.42-.38a.19.19,0,0,0,.21-.12l.34-.32.67-.63.35-.33.35-.34.34-.35.64-.36h0c0-.11,0-.21,0-.32l.33-.35.43.36a.4.4,0,0,0-.08.28.89.89,0,0,1-.28.07l.06.35-.11,0,0,.63-.22.41L30.2,47.9l-.29.67a.46.46,0,0,0-.07.32l-.27.7,0,.34a.47.47,0,0,0-.07.28L29.2,51a.55.55,0,0,0-.05.31l-.26.7-.09.66h0l-.28.71a.51.51,0,0,0,0,.3l-.27.73a.42.42,0,0,0,0,.33.44.44,0,0,0-.06.3l-.24.72,0,.34c0,.11,0,.22,0,.34l0,0-.26.71-.42,2.32-.29,1.08a.65.65,0,0,0,0,.34.28.28,0,0,0-.05.25l-.24.76c0,.88-.77,1.77-.06,2.75,1.26-.74,1.24-2,1.65-3.09h0c0-.11,0-.22,0-.33a.29.29,0,0,0,.06-.25c.09-.26.19-.52.28-.77s.19-.46.28-.69l.06-.33a.3.3,0,0,0,.06-.26l.27-.76a.31.31,0,0,0,.06-.26l.28-.76a.32.32,0,0,0,.06-.27l.28-.75a.33.33,0,0,0,.05-.27L30.51,54l.28-.68.07-.34a.23.23,0,0,0,.05-.24l.33-.78.28-.68a.45.45,0,0,0,.06-.27l.23-.41.11-.6.32-.75.64-1.37a.66.66,0,0,0,.12-.27l.31-.64.6-1.13h0l.24-.34.35-.69L35,43.9l.31-.42.26-.34a.41.41,0,0,0,.11-.28h0l.31-.4.25-.36L36,41.8l.23.3.17-.29.28-.32.68-.7.65-.43.34.06.06,2-.09,1L38,44.49l0,.35-.33,1.36,0,.33-.28,1,0,.34-.38,1.29-.27.76a.47.47,0,0,0,0,.33l-.32,1-.32,1h0l0,.34-.28.68h0c0,.11,0,.23,0,.34l0,0-.27.7,0,.35,0,0-.27.69-.11.59-.22.44c-.35,1.2-1.06,2.34-.62,3.78,1.2-.45,1.51-1.48,1.92-2.41l.24-.36a.45.45,0,0,0,.1-.31l.26-.37a.54.54,0,0,0,.1-.3l.25-.39a.55.55,0,0,0,.1-.32l.24-.37a.43.43,0,0,0,.1-.29l.26-.38a.37.37,0,0,0,.09-.25l.62-1.11,1.38-2.68.26-.38a.59.59,0,0,0,.1-.28l.26-.4a.5.5,0,0,0,.08-.27l.26-.4a.44.44,0,0,0,.09-.27h0l.27-.41a.5.5,0,0,0,.08-.26l.62-1.1h0l.25-.33a.48.48,0,0,0,.11-.3l.27-.38.75-1.33.66-1.05h0l.27-.36a.53.53,0,0,0,.1-.28l.53-.73a.32.32,0,0,0,.14-.29l.32-.39.27-.34.43-.67.29-.36.3-.35a.17.17,0,0,0,.11-.19L47,39.1a.18.18,0,0,0,.2-.11l.36-.27.7.34.3,1v0c0,.68,0,1.36,0,2l0,.94-.26,1.43-.08,1-.26,1.41v.34l-.07.63-.25,1.07,0,.35,0,.33a.29.29,0,0,0,0,.27L47.21,51l0,.34a.3.3,0,0,0,0,.27l-.26,1.09-.07.64-.26,1.06,0,.34,0,.34,0,0-.28,1,0,.68,0,0-.29,1-.06.61-.24.74,0,.68,0,.34,0,0v1.79l.21.23.23-.25.26-1.07.34-1.34v-1l.08-.64.28-1.07.06-.61.24-.74c0-.11,0-.23,0-.34l.09-.61.23-.75.11-.94.23-.75,0-.36,0-.33a.28.28,0,0,0,0-.26l.28-1.1c0-.11,0-.23,0-.34a.29.29,0,0,0,0-.27l.25-1.08.06-1,0,0,.26-1.38.07-1c.1-.69.19-1.38.29-2.07V39.73Zm-13.68-1.7a.61.61,0,0,1,.08-.26l.27-.41a.65.65,0,0,0,0-.28.59.59,0,0,0,.1-.28L36.28,35l.34-.68,0,0,.63-1.05.38-.66.45-.65.58-.7.59-.69a.24.24,0,0,0,.11-.24l.38-.41.34-.34h0a1.24,1.24,0,0,0,.27,0l0,.09.22.22.09,0-.27.68-.13.31-.25.36a.69.69,0,0,0-.14.3l-.24.38-.25.35-.15.31-.29.35-.69,1-.24.36a.49.49,0,0,0-.16.3l-.27.36-.27.34L37,36l-.32.37-.69,1-.25.38-.11-.05a.93.93,0,0,1,0,.33h0l-.28,0h-.08a.78.78,0,0,0,.07-.33,1.06,1.06,0,0,0-.25,0,.53.53,0,0,0,0,.33l-.3,0,0-.35a1.28,1.28,0,0,0,.27-.05,3.11,3.11,0,0,0,0-.32A1.4,1.4,0,0,0,35.24,37.28Z" transform="translate(-5 -28.32)" style="fill: #fff"/>
    <polygon points="43.55 10.03 43.55 10.04 43.56 10.04 43.55 10.03" style="fill: #fff"/>
    <polygon points="48.95 24.32 48.95 24.32 48.96 24.31 48.95 24.32" style="fill: #fff"/>
    <path d="M83,35l-.06.65.34-.65.28-.77.63-2h-.59l-.29.7-.07.32-.39,1-.3.69v0l-.24.37a.53.53,0,0,0-.08.32l-.24.36-.15.58-.58,1.13a.6.6,0,0,0-.1.31l-.53,1-.48,1.28h0l-.25.43a.37.37,0,0,0-.07.27l-.26.4a.61.61,0,0,0-.08.3l-.24.39a.53.53,0,0,0-.09.3l-.23.37-.08.34h0l-.23.34-.16.58-.26.45a.72.72,0,0,0-.08.32l-.22.37a.45.45,0,0,0-.1.31l-.23.37a.44.44,0,0,0-.11.31l-.22.36a.35.35,0,0,0-.09.31l-.27,0h-.38l0-.7,0,0,.3-1v-.33a.32.32,0,0,0,0-.28l.27-.74a.67.67,0,0,0,.07-.31l.28-.72a1,1,0,0,0,0-.17.86.86,0,0,0,0-.16l0,0,.28-.71a.65.65,0,0,0,0-.31l.29-.71a.65.65,0,0,0,0-.34l0,0,.29-.71a.5.5,0,0,0,0-.3l.3-.72a.42.42,0,0,0,.06-.27l.24-.41.45-1.28.24-.42a.51.51,0,0,0,.08-.29l.24-.4a.47.47,0,0,0,.08-.31l.25-.35.41-1a.53.53,0,0,0,.08-.24l.6-1.12h0l.36-.67.36-.66.26-.37a.64.64,0,0,0,.1-.13.47.47,0,0,0,.06-.15l.26-.33.91-.63.11,1.26a.44.44,0,0,0,0,.32l-.32,1h.59l.07-.34.31-1,0-.33V28.85l-1,.11-.31.26h0l-.33.32h0l-.47.34-.25.28,0,0,0,0-.32.36-.28.49a.23.23,0,0,1-.08.22l-.28.41a2.56,2.56,0,0,0,0,.27.34.34,0,0,0-.12.26l-.61,1.1a.36.36,0,0,0-.09.24l-.59,1.12a.37.37,0,0,0-.07.25l-.26.43a.5.5,0,0,0-.07.27l-.25.41a.51.51,0,0,0-.07.3l-.23.39-.11,0-.32.68a1.86,1.86,0,0,0,0,.34L78.4,38l-.29.69a.34.34,0,0,0,0,.26l-.24.42a.69.69,0,0,0-.08.32l-.3.71a.74.74,0,0,0,0,.33l0,0-.29.7a.63.63,0,0,0,0,.3l-.28.73a.54.54,0,0,0,0,.33l0,0-.27.7-.09.61-.26.75a.56.56,0,0,0-.06.31v0l-.3,1.05a.56.56,0,0,0,0,.34.4.4,0,0,0-.06.26h0l-.25.76-.33,1.68-.09.68-.27,1-.06.59,0,.77,0-.77-.29,1.11L74,55v2.81a.39.39,0,0,0,.05.3l0,.33,0,.35.23.42,1.06.91h.67l1.08-.62.66-.63.33-.37.58-.74.16-.29.25-.37.26-.36.14-.3.29-.36.65-1a.77.77,0,0,0,.11-.3l.27-.36.24-.35.15-.31.24-.37a.6.6,0,0,0,.1-.32l.24-.43-.2-.13-.4.57a.79.79,0,0,0-.12.3l-.26.36-.39.67-.3.35-.66,1a1,1,0,0,0-.11.3l-.26.35-.43.66-.27.34-.59.74h0l-.3.33,0,0-.3.31,0,0-.31.3,0,0-1.38.35L75,59.11l-.3-.75a.29.29,0,0,0,0-.27l0-.68V55L75,52.31,75.4,51l.27-.4a.38.38,0,0,0,.09-.25l.26-.43a.27.27,0,0,0,.08-.24l.27-.44a.28.28,0,0,0,.09-.24l.93-1.81a.31.31,0,0,0,.08-.24l.38-.69.93-1.77.23-.35.11-.34.32-.69a.34.34,0,0,0,.07-.24l.26-.44a.5.5,0,0,0,0-.32v0l.26-.38a.59.59,0,0,0,.07-.29l.25-.41a.44.44,0,0,0,.08-.29l.23-.39.12,0,.31-.69,0-.34a.56.56,0,0,0,.12-.31L82.15,37l.39-.95.25-.42.1,0Z" transform="translate(-5 -28.32)" style="fill: #fff"/>
    <path d="M20.33,47.2l.7-.31c.1-.87-.46-.17-.68-.29l-.43.22-.6.12-.7.26,0,0-.34,0-1-.07-.11-.63c-.14-.57-.38-.44-.66-.09l-.26.42a.42.42,0,0,0-.07.29l-.26.41,0,0-.4.27L14.9,48l-.75.25h0a.32.32,0,0,0-.28,0,.33.33,0,0,0-.32,0l-.75.22a.35.35,0,0,0-.28.06l-.33,0-1,.3h0l-.92.59.92-.06.67-.22,1-.3H13l.16,0,1.37-.33h.33l.35.07a.4.4,0,0,1,.32,0l0,.35-.09,0,.05.33-.32.72-1.41,3-.29.45h0l-.24.34a.51.51,0,0,0-.11.31l-.26.37a.39.39,0,0,0-.1.27l-.29.42h0l-.25.32a.5.5,0,0,0-.12.29l-.3.4-.7,1-.32.37h0l-.3.34,0,0-.28.29-.76.76-.3.28,0,0-.37.29h0l-.44.3a.29.29,0,0,0-.23.08l-.72.3H6.79l-.41-.26,0,0-.31-.33v0l-.29-.71,0,0,0-.33,0-.35V56.73l0-.34h0c0-.12,0-.23,0-.34a.48.48,0,0,0,0-.29L6,54.69l0-.34c.12-.43.25-.86.37-1.29l.23-.4.35-1H6.38v0L6.15,52,6,52.56,5.79,53l-.37,1.36a.39.39,0,0,0-.06.3l-.27,1.06,0,.34c0,.11,0,.22,0,.34a.34.34,0,0,0,0,.28v1.81l.06.63.3.68h0l.31.38v0h0l.35.33H6l.7.3,1.71-.39.34-.26h0l.68-.42.29-.29,0,0,.33-.31h0l.33-.33h0l.33-.33h0l.32-.33,0,0,.28-.3.75-1,.29-.35a.36.36,0,0,0,.09-.24l.3-.44h0l.26-.34a.48.48,0,0,0,.1-.29l.28-.39a.32.32,0,0,0,.07-.25l.29-.43.36-.68h0l.39,1,0,.36,0,.33a.23.23,0,0,0,0,.25l-.27,1.45,0,.68a.37.37,0,0,0,0,.29l-.27,1.74,0,.35,0,.34a.31.31,0,0,0,0,.28l-.27,1.74v.36l0,.67a.31.31,0,0,0,0,.28l-.27,1.76v.35l0,.33-.05.61-.25,1.76-.09,2,0,1.42h.34l.3-2,.06-1,.26-1.39v-.36l0-.67a.33.33,0,0,0,0-.29l.26-1.74,0-.69,0-.67a.29.29,0,0,0,0-.27l.26-1.42V60.8a.35.35,0,0,0,0-.33.32.32,0,0,0,0-.3c.1-.58.2-1.17.29-1.75l0-.67a.26.26,0,0,0,0-.28c.09-.47.17-.94.26-1.41l0-.36,0-.33a.28.28,0,0,0,0-.28L15.53,54l.06-.66.3-1.38.4-2.31.26-.75a.43.43,0,0,0,.07-.29l.31-.4h0l.72-.32.63-.06.74-.27.63-.1.41-.23A.52.52,0,0,0,20.33,47.2Z" transform="translate(-5 -28.32)" style="fill: #fff"/>
    <path d="M20,55.69l-.28.47.65.18.29-.3a.27.27,0,0,0,0-.31Z" transform="translate(-5 -28.32)" style="fill: #fff"/>
    <path d="M74.39,33.63l.35-.35.3-.68,0-.34a.43.43,0,0,0,.07-.33l.27-.69h0l0-.34h-.61l0,.33c-.26.79-.52,1.57-.77,2.36l-.2.36-.53,1.32h0l-.26.63,0,.43,0-.43-.25.43a.38.38,0,0,0-.08.27l-.25.4L72,38l-1,2.34,0,.38,0-.38-.24.39a.53.53,0,0,0-.09.3l-.24.37-.07.35,0,0-.23.35-.1.35-.32.67-.3.68a.35.35,0,0,0-.1.27L69,44.5a.61.61,0,0,0-.08.3l-.24.38-.08.34v0l-.25.35a.54.54,0,0,0-.08.33l-.24.34-.17.33-.29,0-.06.35h.1a.9.9,0,0,1-.09.32l-.3,0,.07-.34,0-.35-.13,0,0-.38.09,0,.26-.72a.71.71,0,0,0,0-.32h0l0-.34,0-.33.3-1,.27-.68.13-.68.26-.68.07-.34.27-.69a.43.43,0,0,0,.07-.33l.21-.34.16-.61.23-.43,0-.33h0l.31-.68a.63.63,0,0,0,0-.33l0,0,.23-.38.08-.34.31-.68a.48.48,0,0,0,.07-.26l.25-.41.07-.33,1.22-2.39.48-1,.65-1.05h0l.28-.34.43-.59.65-.27.06,1.21h.61c.16-.8.7-1.72-.67-2l-.46.27a.25.25,0,0,0-.22.11l-.29.3,0,0-.29.3-.43.64-.42.39-.25.31h0l-.29.44a.75.75,0,0,0,0,.26l-.11,0-.28.44-.06.58-.24.37a.45.45,0,0,0-.12.31l-.37.39-.23.36a.44.44,0,0,1-.09.29L70.3,35a.93.93,0,0,0,0,.29.5.5,0,0,0-.08.31L70,36a3.38,3.38,0,0,1-.08.34.39.39,0,0,0,0,.24l-.25.44a.57.57,0,0,0-.08.28l-.23.42a.42.42,0,0,0-.07.31l-.31.7a.58.58,0,0,0,0,.32v0l-.23.37,0,.35a.43.43,0,0,0-.08.31l-.61,1.72-.26.68-.07.34a.43.43,0,0,0-.07.33l-.32.35-.32,1a.4.4,0,0,1,0,.32l-.27.74,0,.63c0,.2,0,.41-.08.62l-.25.73a.42.42,0,0,0,0,.33l-.07.62-.29,1.08-.07.58-.25.79h0l0,.33-.31,1.36-.08.62-.32,1.07h0l-.34.34h0l-.34.3-.35.32a.49.49,0,0,0-.31.11l-.35.26-.32.14-.36.24h0a.85.85,0,0,0-.32,0l-.73.29-.71-.3-.23-.39,0,0v-.6l.26-.74a.51.51,0,0,0,.07-.32l.34-.7h0l.7-.33.39-.26.6-.45.34-.33h0l.31-.36,0,0,.25-.3.1-.34c.44-.45.56-.91,0-1.36h0c-.34-.55-.7-.44-1.08,0l-.32.29-.35.39c-.08.13-.17.26-.26.38h0l-.26.33-.46.94-.27.43,0,0-1,.37a.64.64,0,0,0-.13.29l-.27.36-.3.37-.41.53-.34.35-.34.34,0,.42,0-.42-.42.41h0a.16.16,0,0,0-.2.11L57,55.7,56,56.36a.6.6,0,0,0-.29.08L55,56.38,54.71,56a.62.62,0,0,0-.09-.32l0-1.69,0-.35a.48.48,0,0,0,.05-.31V52.3h0l-.17-.22a2,2,0,0,0-.19.22h0l-.35.34-.29.36v0l-.27.31a.55.55,0,0,0-.14.26l-1,1.1-.31.36-.69.3A1.3,1.3,0,0,0,51.2,55l0-.34,0,0,.28-.71-.3,0,.3,0a.65.65,0,0,0,.05-.31l.31-.69a.6.6,0,0,0,.06-.27l.25-.41a.71.71,0,0,0,.09-.28h0l.28-.41h0l.17-.5-.74.2a.34.34,0,0,0-.12.3v0l-.26.38a.53.53,0,0,0-.08.27l-.25.41a.67.67,0,0,0-.07.31l-.29.72a.72.72,0,0,0-.06.29l-.26.74.28,1.38,1.4-.7.34-.32h0c.32-.36.65-.71,1-1.07h0a1.94,1.94,0,0,1,.33.07.59.59,0,0,0,0,.29v1l0,.34.65,1,1,.29.68-.29h0l1-.67.36-.33.34-.32.33-.33.33-.36.6-.71.16-.3.28-.36.3,0v0h0c0,.11,0,.23,0,.34a.42.42,0,0,0,0,.33.39.39,0,0,0,0,.28,1.76,1.76,0,0,0,0,2.1l.34.32a.45.45,0,0,0,.27.06h.82l.59-.12.38-.25,0,0,.67-.34.36-.27.32-.18.34-.26.36-.24.29.55v1.8a.39.39,0,0,0,0,.3l0,.34,0,.34.26.72a.42.42,0,0,0,.09.29l.28.32,1.68.27h0l.38-.23,2-2.06a.8.8,0,0,0,.15-.29l.24-.36.42-.68.24-.36.39-.67.26-.36a.61.61,0,0,0,.14-.29l-.37,0-.16.32-.26.36-.24.35-.16.31-.27.36-.26.35-.17.3-.28.35c-.56.6-1.13,1.19-1.69,1.78l-.33.27h-1l-.32-.37a.55.55,0,0,0-.08-.31l-.25-.71,0,0,0-.66V56.05l.09-1.94.32-.42h0l.66-.7.3-.5-.34,0-.37.42-.3-.32a.56.56,0,0,0,0-.34l.4-1.24.28-.46h0l.35-.67.23-.32.11-.34.24-.34.1-.34.68-1.37h0l.24-.35.1-.32.26-.36a.63.63,0,0,0,.1-.3l.24-.4a.44.44,0,0,0,.09-.29l.25-.38a.53.53,0,0,0,.09-.3l.26-.39.41-1,.33-.69h0l.32-.68a.35.35,0,0,0,.06-.24l.26-.43c0-.11,0-.22.08-.33l.67-1,.31-.67,0-.35a.49.49,0,0,0,.11-.31l.2-.36L73,37l.36-.34.3-.72,0-.63c.13-.31.25-.62.37-.94Zm-11.91,18-.07,0-.22-.32-.16,0,.13-.32h0l.3-.39a.46.46,0,0,1,.23,0l.39,0h.14l-.07.36-.26.34-.12.32Z" transform="translate(-5 -28.32)" style="fill: #fff"/>
    <path d="M71.93,54h0l.15-.31.24-.37.35-.73-.21-.13-.39.55a.41.41,0,0,0-.12.3l-.26.36a.54.54,0,0,0-.15.3l-.25.36h0l-.25.35.37,0,.27-.37Z" transform="translate(-5 -28.32)" style="fill: #fff"/>
    <path d="M7.09,51.29v0L7.33,51l.09-.33.32-.69a.6.6,0,0,0,.06-.27L8,49.24A.35.35,0,0,0,8.12,49l.25-.38a.48.48,0,0,0,.08-.31l.25-.37a.45.45,0,0,0,.09-.32L9,47.22a.44.44,0,0,0,.09-.31l.25-.37a.42.42,0,0,0,.09-.31l.25-.37.46-1,.27-.41a.39.39,0,0,0,.08-.25h0c.1-.14.19-.29.29-.44h0l.24-.33a.56.56,0,0,0,.12-.31l.27-.37a.41.41,0,0,0,.09-.26l.29-.43h0l.25-.33a.44.44,0,0,0,.11-.29l.29-.39a.35.35,0,0,0,.09-.23l.29-.4.29-.38.39-.64.3-.38.39-.64h0l.3-.4h0l.28-.31.76-1,.33-.38h0l.32-.35h0l.3-.33,0,0,.3-.32,0,0,.29-.31.05,0,.3-.3,0,0,.36-.32.8-.59.91-.38H20a.49.49,0,0,0,.29.06l.4.62c0,.91,0,1.82,0,2.73l0,.67-.05.61-.27,1.44,0,.33L20.09,41l.41.09.19-1,.27-1.4a.35.35,0,0,0,0-.33L21.32,36V34.31l0-.35-.64-1c-.92-.73-1.62-.05-2.35.38l-.75.6-.35.33-1.67,1.67h0c-.12.12-.23.25-.35.38l-.3.35-.3.36,0,0-.27.3a.36.36,0,0,0-.13.25l-.31.38-.32.4h0l-.28.33a.31.31,0,0,0-.1.24l-.32.44h0l-.28.35-.39.69h0l-.26.33a.47.47,0,0,0-.12.27l-.29.42h0l-.25.33a.53.53,0,0,0-.12.3l-.27.38a.39.39,0,0,0-.09.26l-.27.42a.33.33,0,0,0-.09.23l-.28.45h0l-.25.33a.58.58,0,0,0-.11.31l-.26.38-.44.93-.27.42a.27.27,0,0,0-.07.24l-.28.44a.28.28,0,0,0-.07.23l-.27.45a.25.25,0,0,0-.06.23l-.27.45a.32.32,0,0,0-.07.25l-.26.44a.35.35,0,0,0-.07.26l-.25.41a.5.5,0,0,0-.09.29l-.24.4a.52.52,0,0,0-.07.32l-.31.7a.51.51,0,0,0,0,.32H7C7,51.52,7.06,51.41,7.09,51.29Z" transform="translate(-5 -28.32)" style="fill: #fff"/>
  </g>
</svg>
